<mxfile host="app.diagrams.net" modified="2023-04-03T14:48:42.432Z" agent="Mozilla/5.0 (Windows NT 10.0; Win64; x64) AppleWebKit/537.36 (KHTML, like Gecko) Chrome/111.0.0.0 Safari/537.36" etag="qwF_eGGkd3R6XTvX4RTS" version="21.1.4" type="github" pages="9">
  <diagram id="kgpKYQtTHZ0yAKxKKP6v" name="Flow-chart">
    <mxGraphModel dx="2071" dy="664" grid="1" gridSize="10" guides="1" tooltips="1" connect="1" arrows="1" fold="1" page="1" pageScale="1" pageWidth="850" pageHeight="1100" math="0" shadow="0">
      <root>
        <mxCell id="0" />
        <mxCell id="1" parent="0" />
        <mxCell id="3nuBFxr9cyL0pnOWT2aG-1" value="PLA" style="shape=table;childLayout=tableLayout;startSize=40;collapsible=0;recursiveResize=0;expand=0;fillColor=none;fontStyle=1;editable=0;movable=1;resizable=1;rotatable=1;deletable=1;locked=0;connectable=1;" parent="1" vertex="1">
          <mxGeometry x="20" y="40" width="1660" height="800" as="geometry" />
        </mxCell>
        <mxCell id="3nuBFxr9cyL0pnOWT2aG-3" value="Front-End" style="shape=tableRow;horizontal=0;swimlaneHead=0;swimlaneBody=0;top=0;left=0;bottom=0;right=0;fillColor=none;points=[[0,0.5],[1,0.5]];portConstraint=eastwest;startSize=40;collapsible=0;recursiveResize=0;expand=0;fontStyle=1;" parent="3nuBFxr9cyL0pnOWT2aG-1" vertex="1">
          <mxGeometry y="40" width="1660" height="256" as="geometry" />
        </mxCell>
        <mxCell id="KajZSsTYk88KhPLmzA6E-5" value="ERP" style="swimlane;swimlaneHead=0;swimlaneBody=0;connectable=0;fillColor=none;startSize=40;collapsible=0;recursiveResize=0;expand=0;fontStyle=1;" parent="3nuBFxr9cyL0pnOWT2aG-3" vertex="1">
          <mxGeometry x="40" width="430" height="256" as="geometry">
            <mxRectangle width="430" height="256" as="alternateBounds" />
          </mxGeometry>
        </mxCell>
        <mxCell id="KajZSsTYk88KhPLmzA6E-31" value="" style="group" parent="KajZSsTYk88KhPLmzA6E-5" vertex="1" connectable="0">
          <mxGeometry x="310" y="50" width="110" height="70" as="geometry" />
        </mxCell>
        <mxCell id="KajZSsTYk88KhPLmzA6E-21" value="" style="verticalLabelPosition=bottom;verticalAlign=top;html=1;shape=process;whiteSpace=wrap;rounded=1;size=0.14;arcSize=6;" parent="KajZSsTYk88KhPLmzA6E-31" vertex="1">
          <mxGeometry width="110" height="70" as="geometry" />
        </mxCell>
        <mxCell id="KajZSsTYk88KhPLmzA6E-13" value="&lt;font style=&quot;font-size: 9px;&quot;&gt;Terminal UI&lt;/font&gt;" style="strokeWidth=2;html=1;shape=mxgraph.flowchart.display;whiteSpace=wrap;" parent="KajZSsTYk88KhPLmzA6E-31" vertex="1">
          <mxGeometry x="22.5" y="12.5" width="65" height="45" as="geometry" />
        </mxCell>
        <mxCell id="KajZSsTYk88KhPLmzA6E-51" value="MPS" style="swimlane;swimlaneHead=0;swimlaneBody=0;connectable=0;fillColor=none;startSize=40;collapsible=0;recursiveResize=0;expand=0;fontStyle=1;" parent="3nuBFxr9cyL0pnOWT2aG-3" vertex="1">
          <mxGeometry x="470" width="429" height="256" as="geometry">
            <mxRectangle width="429" height="256" as="alternateBounds" />
          </mxGeometry>
        </mxCell>
        <mxCell id="3nuBFxr9cyL0pnOWT2aG-4" value="MES" style="swimlane;swimlaneHead=0;swimlaneBody=0;connectable=0;fillColor=none;startSize=40;collapsible=0;recursiveResize=0;expand=0;fontStyle=1;" parent="3nuBFxr9cyL0pnOWT2aG-3" vertex="1">
          <mxGeometry x="899" width="365" height="256" as="geometry">
            <mxRectangle width="365" height="256" as="alternateBounds" />
          </mxGeometry>
        </mxCell>
        <mxCell id="KajZSsTYk88KhPLmzA6E-32" value="" style="group" parent="3nuBFxr9cyL0pnOWT2aG-4" vertex="1" connectable="0">
          <mxGeometry x="241" y="50" width="110" height="70" as="geometry" />
        </mxCell>
        <mxCell id="KajZSsTYk88KhPLmzA6E-40" value="" style="group" parent="KajZSsTYk88KhPLmzA6E-32" vertex="1" connectable="0">
          <mxGeometry width="110" height="70" as="geometry" />
        </mxCell>
        <mxCell id="KajZSsTYk88KhPLmzA6E-33" value="" style="verticalLabelPosition=bottom;verticalAlign=top;html=1;shape=process;whiteSpace=wrap;rounded=1;size=0.14;arcSize=6;" parent="KajZSsTYk88KhPLmzA6E-40" vertex="1">
          <mxGeometry width="110" height="70" as="geometry" />
        </mxCell>
        <mxCell id="KajZSsTYk88KhPLmzA6E-34" value="&lt;font style=&quot;font-size: 9px;&quot;&gt;Terminal UI&lt;/font&gt;" style="strokeWidth=2;html=1;shape=mxgraph.flowchart.display;whiteSpace=wrap;" parent="KajZSsTYk88KhPLmzA6E-40" vertex="1">
          <mxGeometry x="22.5" y="12.5" width="65" height="45" as="geometry" />
        </mxCell>
        <mxCell id="3nuBFxr9cyL0pnOWT2aG-8" value="Plant" style="swimlane;swimlaneHead=0;swimlaneBody=0;connectable=0;fillColor=none;startSize=40;collapsible=0;recursiveResize=0;expand=0;fontStyle=1;" parent="3nuBFxr9cyL0pnOWT2aG-3" vertex="1">
          <mxGeometry x="1264" width="396" height="256" as="geometry">
            <mxRectangle width="396" height="256" as="alternateBounds" />
          </mxGeometry>
        </mxCell>
        <mxCell id="4ieldCy7oNxamIffwvE--12" value="Day CLK" style="rhombus;whiteSpace=wrap;html=1;" parent="3nuBFxr9cyL0pnOWT2aG-8" vertex="1">
          <mxGeometry x="20" y="50" width="80" height="80" as="geometry" />
        </mxCell>
        <mxCell id="4ieldCy7oNxamIffwvE--13" style="edgeStyle=orthogonalEdgeStyle;rounded=0;orthogonalLoop=1;jettySize=auto;html=1;entryX=0;entryY=0.5;entryDx=0;entryDy=0;entryPerimeter=0;exitX=0.5;exitY=1;exitDx=0;exitDy=0;" parent="3nuBFxr9cyL0pnOWT2aG-3" source="4ieldCy7oNxamIffwvE--12" target="KajZSsTYk88KhPLmzA6E-13" edge="1">
          <mxGeometry relative="1" as="geometry">
            <mxPoint x="740" y="220" as="targetPoint" />
            <Array as="points">
              <mxPoint x="1324" y="180" />
              <mxPoint x="340" y="180" />
              <mxPoint x="340" y="85" />
            </Array>
          </mxGeometry>
        </mxCell>
        <mxCell id="4ieldCy7oNxamIffwvE--14" value="Show day clock" style="edgeLabel;html=1;align=center;verticalAlign=middle;resizable=0;points=[];" parent="4ieldCy7oNxamIffwvE--13" vertex="1" connectable="0">
          <mxGeometry x="0.4516" relative="1" as="geometry">
            <mxPoint as="offset" />
          </mxGeometry>
        </mxCell>
        <mxCell id="3nuBFxr9cyL0pnOWT2aG-15" value="Back-End" style="shape=tableRow;horizontal=0;swimlaneHead=0;swimlaneBody=0;top=0;left=0;bottom=0;right=0;fillColor=none;points=[[0,0.5],[1,0.5]];portConstraint=eastwest;startSize=40;collapsible=0;recursiveResize=0;expand=0;fontStyle=1;" parent="3nuBFxr9cyL0pnOWT2aG-1" vertex="1">
          <mxGeometry y="296" width="1660" height="252" as="geometry" />
        </mxCell>
        <mxCell id="KajZSsTYk88KhPLmzA6E-6" style="swimlane;swimlaneHead=0;swimlaneBody=0;connectable=0;fillColor=none;startSize=0;collapsible=0;recursiveResize=0;expand=0;fontStyle=1;" parent="3nuBFxr9cyL0pnOWT2aG-15" vertex="1">
          <mxGeometry x="40" width="430" height="252" as="geometry">
            <mxRectangle width="430" height="252" as="alternateBounds" />
          </mxGeometry>
        </mxCell>
        <mxCell id="KajZSsTYk88KhPLmzA6E-28" style="edgeStyle=orthogonalEdgeStyle;rounded=0;orthogonalLoop=1;jettySize=auto;html=1;" parent="KajZSsTYk88KhPLmzA6E-6" source="KajZSsTYk88KhPLmzA6E-9" target="KajZSsTYk88KhPLmzA6E-27" edge="1">
          <mxGeometry relative="1" as="geometry" />
        </mxCell>
        <mxCell id="MU37iUgvHi2hBR32YlbL-4" value="Signal an update on &lt;br&gt;the &quot;Orders&quot; Database" style="edgeLabel;html=1;align=center;verticalAlign=middle;resizable=0;points=[];" parent="KajZSsTYk88KhPLmzA6E-28" vertex="1" connectable="0">
          <mxGeometry x="-0.2571" y="2" relative="1" as="geometry">
            <mxPoint x="-20" y="-7" as="offset" />
          </mxGeometry>
        </mxCell>
        <mxCell id="KajZSsTYk88KhPLmzA6E-9" value="Process Orders&amp;nbsp;" style="shape=process;whiteSpace=wrap;html=1;backgroundOutline=1;" parent="KajZSsTYk88KhPLmzA6E-6" vertex="1">
          <mxGeometry x="50" y="10" width="120" height="60" as="geometry" />
        </mxCell>
        <mxCell id="KajZSsTYk88KhPLmzA6E-27" value="Process information" style="strokeWidth=2;html=1;shape=mxgraph.flowchart.start_1;whiteSpace=wrap;" parent="KajZSsTYk88KhPLmzA6E-6" vertex="1">
          <mxGeometry x="30" y="160" width="100" height="60" as="geometry" />
        </mxCell>
        <mxCell id="KajZSsTYk88KhPLmzA6E-52" style="swimlane;swimlaneHead=0;swimlaneBody=0;connectable=0;fillColor=none;startSize=0;collapsible=0;recursiveResize=0;expand=0;fontStyle=1;" parent="3nuBFxr9cyL0pnOWT2aG-15" vertex="1">
          <mxGeometry x="470" width="429" height="252" as="geometry">
            <mxRectangle width="429" height="252" as="alternateBounds" />
          </mxGeometry>
        </mxCell>
        <mxCell id="KajZSsTYk88KhPLmzA6E-19" value="Planning Algorithm" style="shape=parallelogram;html=1;strokeWidth=2;perimeter=parallelogramPerimeter;whiteSpace=wrap;rounded=1;arcSize=12;size=0.23;" parent="KajZSsTYk88KhPLmzA6E-52" vertex="1">
          <mxGeometry x="148" y="100" width="100" height="60" as="geometry" />
        </mxCell>
        <mxCell id="MU37iUgvHi2hBR32YlbL-10" style="edgeStyle=orthogonalEdgeStyle;rounded=0;orthogonalLoop=1;jettySize=auto;html=1;exitX=0;exitY=1;exitDx=0;exitDy=0;startArrow=classic;startFill=1;endArrow=none;endFill=0;entryX=1;entryY=0.15;entryDx=0;entryDy=0;entryPerimeter=0;" parent="KajZSsTYk88KhPLmzA6E-52" edge="1">
          <mxGeometry relative="1" as="geometry">
            <Array as="points">
              <mxPoint x="148" y="220.29999999999995" />
              <mxPoint x="-190" y="220.29999999999995" />
              <mxPoint x="-190" y="332.29999999999995" />
            </Array>
            <mxPoint x="148" y="156.3" as="sourcePoint" />
            <mxPoint x="-205" y="332" as="targetPoint" />
          </mxGeometry>
        </mxCell>
        <mxCell id="MU37iUgvHi2hBR32YlbL-11" value="Retrieve orders" style="edgeLabel;html=1;align=center;verticalAlign=middle;resizable=0;points=[];" parent="MU37iUgvHi2hBR32YlbL-10" vertex="1" connectable="0">
          <mxGeometry x="-0.3233" y="1" relative="1" as="geometry">
            <mxPoint x="27" y="-1" as="offset" />
          </mxGeometry>
        </mxCell>
        <mxCell id="3nuBFxr9cyL0pnOWT2aG-16" value="" style="swimlane;swimlaneHead=0;swimlaneBody=0;connectable=0;fillColor=none;startSize=0;collapsible=0;recursiveResize=0;expand=0;fontStyle=1;" parent="3nuBFxr9cyL0pnOWT2aG-15" vertex="1">
          <mxGeometry x="899" width="365" height="252" as="geometry">
            <mxRectangle width="365" height="252" as="alternateBounds" />
          </mxGeometry>
        </mxCell>
        <mxCell id="KajZSsTYk88KhPLmzA6E-46" style="edgeStyle=orthogonalEdgeStyle;rounded=0;orthogonalLoop=1;jettySize=auto;html=1;entryX=1;entryY=0.5;entryDx=0;entryDy=0;entryPerimeter=0;" parent="3nuBFxr9cyL0pnOWT2aG-16" source="KajZSsTYk88KhPLmzA6E-35" target="KajZSsTYk88KhPLmzA6E-45" edge="1">
          <mxGeometry relative="1" as="geometry" />
        </mxCell>
        <mxCell id="Br2GBXhkB9kAN_1juU1B-12" value="Piece&lt;br&gt;&amp;nbsp;information" style="edgeLabel;html=1;align=center;verticalAlign=middle;resizable=0;points=[];" parent="KajZSsTYk88KhPLmzA6E-46" vertex="1" connectable="0">
          <mxGeometry x="0.7336" y="-1" relative="1" as="geometry">
            <mxPoint x="21" y="1" as="offset" />
          </mxGeometry>
        </mxCell>
        <mxCell id="KajZSsTYk88KhPLmzA6E-35" value="OPC_UA" style="rounded=1;whiteSpace=wrap;html=1;absoluteArcSize=1;arcSize=14;strokeWidth=1;dashed=1;dashPattern=8 8;rotation=0;" parent="3nuBFxr9cyL0pnOWT2aG-16" vertex="1">
          <mxGeometry x="311" y="10" width="28" height="170" as="geometry" />
        </mxCell>
        <mxCell id="KajZSsTYk88KhPLmzA6E-45" value="Create Trajectory" style="strokeWidth=2;html=1;shape=mxgraph.flowchart.sequential_data;whiteSpace=wrap;" parent="3nuBFxr9cyL0pnOWT2aG-16" vertex="1">
          <mxGeometry x="48" y="45" width="100" height="100" as="geometry" />
        </mxCell>
        <mxCell id="3nuBFxr9cyL0pnOWT2aG-18" value="" style="swimlane;swimlaneHead=0;swimlaneBody=0;connectable=0;fillColor=none;startSize=0;collapsible=0;recursiveResize=0;expand=0;fontStyle=1;" parent="3nuBFxr9cyL0pnOWT2aG-15" vertex="1">
          <mxGeometry x="1264" width="396" height="252" as="geometry">
            <mxRectangle width="396" height="252" as="alternateBounds" />
          </mxGeometry>
        </mxCell>
        <mxCell id="KajZSsTYk88KhPLmzA6E-42" value="Pice trajectory" style="strokeWidth=2;html=1;shape=mxgraph.flowchart.start_1;whiteSpace=wrap;" parent="3nuBFxr9cyL0pnOWT2aG-18" vertex="1">
          <mxGeometry x="20" y="8" width="100" height="60" as="geometry" />
        </mxCell>
        <mxCell id="KajZSsTYk88KhPLmzA6E-44" value="Pice status" style="strokeWidth=2;html=1;shape=mxgraph.flowchart.start_1;whiteSpace=wrap;" parent="3nuBFxr9cyL0pnOWT2aG-18" vertex="1">
          <mxGeometry x="20" y="80" width="100" height="60" as="geometry" />
        </mxCell>
        <mxCell id="KajZSsTYk88KhPLmzA6E-22" value="&lt;font style=&quot;font-size: 11px;&quot;&gt;Stock Warehouse&lt;/font&gt;" style="strokeWidth=2;html=1;shape=mxgraph.flowchart.document2;whiteSpace=wrap;size=0.25;" parent="3nuBFxr9cyL0pnOWT2aG-18" vertex="1">
          <mxGeometry x="316" y="8" width="66" height="62" as="geometry" />
        </mxCell>
        <mxCell id="KajZSsTYk88KhPLmzA6E-18" value="Time of job" style="strokeWidth=2;html=1;shape=mxgraph.flowchart.document2;whiteSpace=wrap;size=0.25;" parent="3nuBFxr9cyL0pnOWT2aG-18" vertex="1">
          <mxGeometry x="316" y="84" width="64" height="56" as="geometry" />
        </mxCell>
        <mxCell id="Br2GBXhkB9kAN_1juU1B-7" style="edgeStyle=orthogonalEdgeStyle;rounded=0;orthogonalLoop=1;jettySize=auto;html=1;" parent="3nuBFxr9cyL0pnOWT2aG-15" source="KajZSsTYk88KhPLmzA6E-44" target="KajZSsTYk88KhPLmzA6E-35" edge="1">
          <mxGeometry relative="1" as="geometry" />
        </mxCell>
        <mxCell id="KajZSsTYk88KhPLmzA6E-43" style="edgeStyle=orthogonalEdgeStyle;rounded=0;orthogonalLoop=1;jettySize=auto;html=1;" parent="3nuBFxr9cyL0pnOWT2aG-15" source="KajZSsTYk88KhPLmzA6E-42" target="KajZSsTYk88KhPLmzA6E-35" edge="1">
          <mxGeometry relative="1" as="geometry">
            <mxPoint x="1254" y="38" as="targetPoint" />
          </mxGeometry>
        </mxCell>
        <mxCell id="KajZSsTYk88KhPLmzA6E-36" value="Database" style="shape=tableRow;horizontal=0;swimlaneHead=0;swimlaneBody=0;top=0;left=0;bottom=0;right=0;fillColor=none;points=[[0,0.5],[1,0.5]];portConstraint=eastwest;startSize=40;collapsible=0;recursiveResize=0;expand=0;fontStyle=1;" parent="3nuBFxr9cyL0pnOWT2aG-1" vertex="1">
          <mxGeometry y="548" width="1660" height="252" as="geometry" />
        </mxCell>
        <mxCell id="KajZSsTYk88KhPLmzA6E-37" style="swimlane;swimlaneHead=0;swimlaneBody=0;connectable=0;fillColor=none;startSize=0;collapsible=0;recursiveResize=0;expand=0;fontStyle=1;" parent="KajZSsTYk88KhPLmzA6E-36" vertex="1">
          <mxGeometry x="40" width="430" height="252" as="geometry">
            <mxRectangle width="430" height="252" as="alternateBounds" />
          </mxGeometry>
        </mxCell>
        <mxCell id="MU37iUgvHi2hBR32YlbL-7" value="" style="edgeStyle=orthogonalEdgeStyle;rounded=0;orthogonalLoop=1;jettySize=auto;html=1;endArrow=none;endFill=0;shape=link;" parent="KajZSsTYk88KhPLmzA6E-37" source="MU37iUgvHi2hBR32YlbL-5" target="MU37iUgvHi2hBR32YlbL-6" edge="1">
          <mxGeometry relative="1" as="geometry" />
        </mxCell>
        <mxCell id="4ieldCy7oNxamIffwvE--8" style="edgeStyle=orthogonalEdgeStyle;rounded=0;orthogonalLoop=1;jettySize=auto;html=1;shape=link;" parent="KajZSsTYk88KhPLmzA6E-37" source="MU37iUgvHi2hBR32YlbL-5" target="4ieldCy7oNxamIffwvE--6" edge="1">
          <mxGeometry relative="1" as="geometry" />
        </mxCell>
        <mxCell id="4ieldCy7oNxamIffwvE--9" style="edgeStyle=orthogonalEdgeStyle;rounded=0;orthogonalLoop=1;jettySize=auto;html=1;entryX=1;entryY=0.5;entryDx=0;entryDy=0;entryPerimeter=0;shape=link;" parent="KajZSsTYk88KhPLmzA6E-37" source="MU37iUgvHi2hBR32YlbL-5" target="4ieldCy7oNxamIffwvE--7" edge="1">
          <mxGeometry relative="1" as="geometry" />
        </mxCell>
        <mxCell id="MU37iUgvHi2hBR32YlbL-5" value="&amp;nbsp;Orders" style="strokeWidth=2;html=1;shape=mxgraph.flowchart.database;whiteSpace=wrap;" parent="KajZSsTYk88KhPLmzA6E-37" vertex="1">
          <mxGeometry x="155" y="72" width="70" height="78" as="geometry" />
        </mxCell>
        <mxCell id="MU37iUgvHi2hBR32YlbL-6" value="Clients" style="strokeWidth=2;html=1;shape=mxgraph.flowchart.database;whiteSpace=wrap;" parent="KajZSsTYk88KhPLmzA6E-37" vertex="1">
          <mxGeometry x="295" y="72" width="70" height="78" as="geometry" />
        </mxCell>
        <mxCell id="4ieldCy7oNxamIffwvE--6" value="Concluded" style="strokeWidth=2;html=1;shape=mxgraph.flowchart.database;whiteSpace=wrap;" parent="KajZSsTYk88KhPLmzA6E-37" vertex="1">
          <mxGeometry x="40" y="72" width="70" height="40" as="geometry" />
        </mxCell>
        <mxCell id="4ieldCy7oNxamIffwvE--7" value="Pending" style="strokeWidth=2;html=1;shape=mxgraph.flowchart.database;whiteSpace=wrap;" parent="KajZSsTYk88KhPLmzA6E-37" vertex="1">
          <mxGeometry x="40" y="142" width="70" height="40" as="geometry" />
        </mxCell>
        <mxCell id="KajZSsTYk88KhPLmzA6E-53" style="swimlane;swimlaneHead=0;swimlaneBody=0;connectable=0;fillColor=none;startSize=0;collapsible=0;recursiveResize=0;expand=0;fontStyle=1;" parent="KajZSsTYk88KhPLmzA6E-36" vertex="1">
          <mxGeometry x="470" width="429" height="252" as="geometry">
            <mxRectangle width="429" height="252" as="alternateBounds" />
          </mxGeometry>
        </mxCell>
        <mxCell id="KajZSsTYk88KhPLmzA6E-16" value="&lt;br&gt;Schedule Plan" style="strokeWidth=2;html=1;shape=mxgraph.flowchart.database;whiteSpace=wrap;" parent="KajZSsTYk88KhPLmzA6E-53" vertex="1">
          <mxGeometry x="163" y="30" width="70" height="50" as="geometry" />
        </mxCell>
        <mxCell id="4ieldCy7oNxamIffwvE--1" value="Pices to Purchase" style="strokeWidth=2;html=1;shape=mxgraph.flowchart.database;whiteSpace=wrap;" parent="KajZSsTYk88KhPLmzA6E-53" vertex="1">
          <mxGeometry x="200" y="152" width="70" height="88" as="geometry" />
        </mxCell>
        <mxCell id="KajZSsTYk88KhPLmzA6E-38" style="swimlane;swimlaneHead=0;swimlaneBody=0;connectable=0;fillColor=none;startSize=0;collapsible=0;recursiveResize=0;expand=0;fontStyle=1;" parent="KajZSsTYk88KhPLmzA6E-36" vertex="1">
          <mxGeometry x="899" width="365" height="252" as="geometry">
            <mxRectangle width="365" height="252" as="alternateBounds" />
          </mxGeometry>
        </mxCell>
        <mxCell id="KajZSsTYk88KhPLmzA6E-39" style="swimlane;swimlaneHead=0;swimlaneBody=0;connectable=0;fillColor=none;startSize=0;collapsible=0;recursiveResize=0;expand=0;fontStyle=1;" parent="KajZSsTYk88KhPLmzA6E-36" vertex="1">
          <mxGeometry x="1264" width="396" height="252" as="geometry">
            <mxRectangle width="396" height="252" as="alternateBounds" />
          </mxGeometry>
        </mxCell>
        <mxCell id="KajZSsTYk88KhPLmzA6E-23" value="Factory&lt;br&gt;Data" style="strokeWidth=2;html=1;shape=mxgraph.flowchart.database;whiteSpace=wrap;" parent="KajZSsTYk88KhPLmzA6E-39" vertex="1">
          <mxGeometry x="100" y="59" width="50" height="80" as="geometry" />
        </mxCell>
        <mxCell id="KajZSsTYk88KhPLmzA6E-29" style="edgeStyle=orthogonalEdgeStyle;rounded=0;orthogonalLoop=1;jettySize=auto;html=1;entryX=1;entryY=0.5;entryDx=0;entryDy=0;" parent="3nuBFxr9cyL0pnOWT2aG-1" source="KajZSsTYk88KhPLmzA6E-23" target="KajZSsTYk88KhPLmzA6E-19" edge="1">
          <mxGeometry relative="1" as="geometry">
            <Array as="points">
              <mxPoint x="810" y="647" />
              <mxPoint x="810" y="426" />
            </Array>
          </mxGeometry>
        </mxCell>
        <mxCell id="KajZSsTYk88KhPLmzA6E-20" style="edgeStyle=orthogonalEdgeStyle;rounded=0;orthogonalLoop=1;jettySize=auto;html=1;startArrow=classic;startFill=1;" parent="3nuBFxr9cyL0pnOWT2aG-1" source="KajZSsTYk88KhPLmzA6E-16" target="KajZSsTYk88KhPLmzA6E-27" edge="1">
          <mxGeometry relative="1" as="geometry" />
        </mxCell>
        <mxCell id="dcM9h4b5assa5pnJStV_-1" value="Send/Update the plan" style="edgeLabel;html=1;align=center;verticalAlign=middle;resizable=0;points=[];" parent="KajZSsTYk88KhPLmzA6E-20" vertex="1" connectable="0">
          <mxGeometry x="-0.0974" relative="1" as="geometry">
            <mxPoint as="offset" />
          </mxGeometry>
        </mxCell>
        <mxCell id="KajZSsTYk88KhPLmzA6E-49" style="edgeStyle=orthogonalEdgeStyle;rounded=0;orthogonalLoop=1;jettySize=auto;html=1;" parent="3nuBFxr9cyL0pnOWT2aG-1" source="KajZSsTYk88KhPLmzA6E-16" target="KajZSsTYk88KhPLmzA6E-45" edge="1">
          <mxGeometry relative="1" as="geometry" />
        </mxCell>
        <mxCell id="KajZSsTYk88KhPLmzA6E-50" value="Retrieve Current Day Plan" style="edgeLabel;html=1;align=center;verticalAlign=middle;resizable=0;points=[];" parent="KajZSsTYk88KhPLmzA6E-49" vertex="1" connectable="0">
          <mxGeometry x="-0.202" y="-2" relative="1" as="geometry">
            <mxPoint x="29" y="-2" as="offset" />
          </mxGeometry>
        </mxCell>
        <mxCell id="KajZSsTYk88KhPLmzA6E-24" style="edgeStyle=orthogonalEdgeStyle;rounded=0;orthogonalLoop=1;jettySize=auto;html=1;entryX=1;entryY=0.5;entryDx=0;entryDy=0;entryPerimeter=0;" parent="3nuBFxr9cyL0pnOWT2aG-1" source="KajZSsTYk88KhPLmzA6E-22" target="KajZSsTYk88KhPLmzA6E-23" edge="1">
          <mxGeometry relative="1" as="geometry" />
        </mxCell>
        <mxCell id="KajZSsTYk88KhPLmzA6E-25" style="edgeStyle=orthogonalEdgeStyle;rounded=0;orthogonalLoop=1;jettySize=auto;html=1;entryX=1;entryY=0.5;entryDx=0;entryDy=0;entryPerimeter=0;" parent="3nuBFxr9cyL0pnOWT2aG-1" source="KajZSsTYk88KhPLmzA6E-18" target="KajZSsTYk88KhPLmzA6E-23" edge="1">
          <mxGeometry relative="1" as="geometry" />
        </mxCell>
        <mxCell id="Br2GBXhkB9kAN_1juU1B-1" style="edgeStyle=orthogonalEdgeStyle;rounded=0;orthogonalLoop=1;jettySize=auto;html=1;exitX=0.855;exitY=0.145;exitDx=0;exitDy=0;exitPerimeter=0;entryX=0;entryY=0.5;entryDx=0;entryDy=0;entryPerimeter=0;" parent="3nuBFxr9cyL0pnOWT2aG-1" source="KajZSsTYk88KhPLmzA6E-27" target="KajZSsTYk88KhPLmzA6E-13" edge="1">
          <mxGeometry relative="1" as="geometry">
            <Array as="points">
              <mxPoint x="260" y="465" />
              <mxPoint x="260" y="125" />
            </Array>
          </mxGeometry>
        </mxCell>
        <mxCell id="Br2GBXhkB9kAN_1juU1B-4" value="Show Production Schedule" style="edgeLabel;html=1;align=center;verticalAlign=middle;resizable=0;points=[];" parent="Br2GBXhkB9kAN_1juU1B-1" vertex="1" connectable="0">
          <mxGeometry x="0.3002" y="2" relative="1" as="geometry">
            <mxPoint as="offset" />
          </mxGeometry>
        </mxCell>
        <mxCell id="Br2GBXhkB9kAN_1juU1B-5" style="edgeStyle=orthogonalEdgeStyle;rounded=0;orthogonalLoop=1;jettySize=auto;html=1;entryX=0;entryY=0.5;entryDx=0;entryDy=0;entryPerimeter=0;" parent="3nuBFxr9cyL0pnOWT2aG-1" source="KajZSsTYk88KhPLmzA6E-45" target="KajZSsTYk88KhPLmzA6E-34" edge="1">
          <mxGeometry relative="1" as="geometry">
            <Array as="points">
              <mxPoint x="997" y="125" />
            </Array>
          </mxGeometry>
        </mxCell>
        <mxCell id="Br2GBXhkB9kAN_1juU1B-6" value="Show real-time trajectory and &lt;br&gt;plan status" style="edgeLabel;html=1;align=center;verticalAlign=middle;resizable=0;points=[];" parent="Br2GBXhkB9kAN_1juU1B-5" vertex="1" connectable="0">
          <mxGeometry x="-0.1408" y="-2" relative="1" as="geometry">
            <mxPoint x="-2" y="-3" as="offset" />
          </mxGeometry>
        </mxCell>
        <mxCell id="MU37iUgvHi2hBR32YlbL-1" style="edgeStyle=orthogonalEdgeStyle;rounded=0;orthogonalLoop=1;jettySize=auto;html=1;entryX=0.5;entryY=0;entryDx=0;entryDy=0;entryPerimeter=0;startArrow=classic;startFill=1;" parent="3nuBFxr9cyL0pnOWT2aG-1" source="KajZSsTYk88KhPLmzA6E-19" target="KajZSsTYk88KhPLmzA6E-16" edge="1">
          <mxGeometry relative="1" as="geometry" />
        </mxCell>
        <mxCell id="MU37iUgvHi2hBR32YlbL-12" value="Update day n+1... plan" style="edgeLabel;html=1;align=center;verticalAlign=middle;resizable=0;points=[];" parent="MU37iUgvHi2hBR32YlbL-1" vertex="1" connectable="0">
          <mxGeometry x="-0.1171" y="2" relative="1" as="geometry">
            <mxPoint x="20" as="offset" />
          </mxGeometry>
        </mxCell>
        <mxCell id="MU37iUgvHi2hBR32YlbL-8" style="edgeStyle=orthogonalEdgeStyle;rounded=0;orthogonalLoop=1;jettySize=auto;html=1;" parent="3nuBFxr9cyL0pnOWT2aG-1" source="KajZSsTYk88KhPLmzA6E-9" target="MU37iUgvHi2hBR32YlbL-5" edge="1">
          <mxGeometry relative="1" as="geometry">
            <Array as="points">
              <mxPoint x="230" y="336" />
            </Array>
          </mxGeometry>
        </mxCell>
        <mxCell id="MU37iUgvHi2hBR32YlbL-9" value="send new orders" style="edgeLabel;html=1;align=center;verticalAlign=middle;resizable=0;points=[];" parent="MU37iUgvHi2hBR32YlbL-8" vertex="1" connectable="0">
          <mxGeometry x="-0.336" relative="1" as="geometry">
            <mxPoint x="-20" y="24" as="offset" />
          </mxGeometry>
        </mxCell>
        <mxCell id="4ieldCy7oNxamIffwvE--2" style="edgeStyle=orthogonalEdgeStyle;rounded=0;orthogonalLoop=1;jettySize=auto;html=1;entryX=1;entryY=0.5;entryDx=0;entryDy=0;entryPerimeter=0;startArrow=classic;startFill=1;endArrow=none;endFill=0;" parent="3nuBFxr9cyL0pnOWT2aG-1" source="KajZSsTYk88KhPLmzA6E-19" target="4ieldCy7oNxamIffwvE--1" edge="1">
          <mxGeometry relative="1" as="geometry">
            <Array as="points">
              <mxPoint x="760" y="400" />
            </Array>
          </mxGeometry>
        </mxCell>
        <mxCell id="4ieldCy7oNxamIffwvE--3" value="Pieces" style="edgeLabel;html=1;align=center;verticalAlign=middle;resizable=0;points=[];" parent="4ieldCy7oNxamIffwvE--2" vertex="1" connectable="0">
          <mxGeometry x="0.2937" y="2" relative="1" as="geometry">
            <mxPoint x="-12" y="50" as="offset" />
          </mxGeometry>
        </mxCell>
        <mxCell id="4ieldCy7oNxamIffwvE--4" style="edgeStyle=orthogonalEdgeStyle;rounded=0;orthogonalLoop=1;jettySize=auto;html=1;startArrow=classic;startFill=1;endArrow=none;endFill=0;entryX=0;entryY=0.5;entryDx=0;entryDy=0;entryPerimeter=0;" parent="3nuBFxr9cyL0pnOWT2aG-1" source="KajZSsTYk88KhPLmzA6E-34" target="KajZSsTYk88KhPLmzA6E-23" edge="1">
          <mxGeometry relative="1" as="geometry">
            <mxPoint x="1140" y="650" as="targetPoint" />
            <Array as="points">
              <mxPoint x="1150" y="125" />
              <mxPoint x="1150" y="630" />
              <mxPoint x="1364" y="630" />
            </Array>
          </mxGeometry>
        </mxCell>
        <mxCell id="4ieldCy7oNxamIffwvE--5" value="Stock Data" style="edgeLabel;html=1;align=center;verticalAlign=middle;resizable=0;points=[];" parent="4ieldCy7oNxamIffwvE--4" vertex="1" connectable="0">
          <mxGeometry x="-0.4888" relative="1" as="geometry">
            <mxPoint as="offset" />
          </mxGeometry>
        </mxCell>
        <mxCell id="4ieldCy7oNxamIffwvE--10" style="edgeStyle=orthogonalEdgeStyle;rounded=0;orthogonalLoop=1;jettySize=auto;html=1;entryX=0;entryY=0.5;entryDx=0;entryDy=0;entryPerimeter=0;" parent="3nuBFxr9cyL0pnOWT2aG-1" source="KajZSsTYk88KhPLmzA6E-19" target="KajZSsTYk88KhPLmzA6E-13" edge="1">
          <mxGeometry relative="1" as="geometry">
            <Array as="points">
              <mxPoint x="330" y="426" />
              <mxPoint x="330" y="125" />
            </Array>
          </mxGeometry>
        </mxCell>
        <mxCell id="4ieldCy7oNxamIffwvE--11" value="Show Purchasing Schedule" style="edgeLabel;html=1;align=center;verticalAlign=middle;resizable=0;points=[];" parent="4ieldCy7oNxamIffwvE--10" vertex="1" connectable="0">
          <mxGeometry x="0.6417" y="2" relative="1" as="geometry">
            <mxPoint x="10" y="48" as="offset" />
          </mxGeometry>
        </mxCell>
        <mxCell id="4ieldCy7oNxamIffwvE--15" style="edgeStyle=orthogonalEdgeStyle;rounded=0;orthogonalLoop=1;jettySize=auto;html=1;entryX=0;entryY=0.5;entryDx=0;entryDy=0;entryPerimeter=0;" parent="3nuBFxr9cyL0pnOWT2aG-1" source="4ieldCy7oNxamIffwvE--6" target="KajZSsTYk88KhPLmzA6E-13" edge="1">
          <mxGeometry relative="1" as="geometry">
            <Array as="points">
              <mxPoint x="60" y="640" />
              <mxPoint x="60" y="125" />
            </Array>
          </mxGeometry>
        </mxCell>
        <mxCell id="4ieldCy7oNxamIffwvE--16" style="edgeStyle=orthogonalEdgeStyle;rounded=0;orthogonalLoop=1;jettySize=auto;html=1;entryX=0;entryY=0.5;entryDx=0;entryDy=0;entryPerimeter=0;" parent="3nuBFxr9cyL0pnOWT2aG-1" source="4ieldCy7oNxamIffwvE--7" target="KajZSsTYk88KhPLmzA6E-13" edge="1">
          <mxGeometry relative="1" as="geometry">
            <Array as="points">
              <mxPoint x="50" y="710" />
              <mxPoint x="50" y="125" />
            </Array>
          </mxGeometry>
        </mxCell>
        <mxCell id="4ieldCy7oNxamIffwvE--17" value="Show Concluded &amp;amp; Pending Orders" style="edgeLabel;html=1;align=center;verticalAlign=middle;resizable=0;points=[];" parent="4ieldCy7oNxamIffwvE--16" vertex="1" connectable="0">
          <mxGeometry x="0.4894" relative="1" as="geometry">
            <mxPoint x="27" as="offset" />
          </mxGeometry>
        </mxCell>
        <mxCell id="KajZSsTYk88KhPLmzA6E-11" value="Client Order" style="shape=providedRequiredInterface;html=1;verticalLabelPosition=bottom;sketch=0;" parent="1" vertex="1">
          <mxGeometry x="-150" y="366" width="20" height="20" as="geometry" />
        </mxCell>
        <mxCell id="KajZSsTYk88KhPLmzA6E-10" style="edgeStyle=orthogonalEdgeStyle;rounded=0;orthogonalLoop=1;jettySize=auto;html=1;dashed=1;entryX=1;entryY=0.5;entryDx=0;entryDy=0;entryPerimeter=0;startArrow=classic;startFill=1;endArrow=none;endFill=0;" parent="1" source="KajZSsTYk88KhPLmzA6E-9" target="KajZSsTYk88KhPLmzA6E-11" edge="1">
          <mxGeometry relative="1" as="geometry">
            <mxPoint x="-30" y="319.9999999999999" as="targetPoint" />
          </mxGeometry>
        </mxCell>
        <mxCell id="KajZSsTYk88KhPLmzA6E-12" value="UDP Connection" style="edgeLabel;html=1;align=center;verticalAlign=middle;resizable=0;points=[];" parent="KajZSsTYk88KhPLmzA6E-10" vertex="1" connectable="0">
          <mxGeometry x="0.2718" y="-1" relative="1" as="geometry">
            <mxPoint as="offset" />
          </mxGeometry>
        </mxCell>
        <mxCell id="Br2GBXhkB9kAN_1juU1B-9" style="edgeStyle=orthogonalEdgeStyle;rounded=0;orthogonalLoop=1;jettySize=auto;html=1;entryX=0;entryY=0.5;entryDx=0;entryDy=0;entryPerimeter=0;" parent="1" source="Br2GBXhkB9kAN_1juU1B-8" target="KajZSsTYk88KhPLmzA6E-11" edge="1">
          <mxGeometry relative="1" as="geometry" />
        </mxCell>
        <mxCell id="Br2GBXhkB9kAN_1juU1B-8" value="Client" style="shape=umlActor;verticalLabelPosition=bottom;verticalAlign=top;html=1;outlineConnect=0;" parent="1" vertex="1">
          <mxGeometry x="-250" y="346" width="30" height="60" as="geometry" />
        </mxCell>
        <mxCell id="4ieldCy7oNxamIffwvE--20" value="Day Loop" style="shape=table;startSize=30;container=1;collapsible=1;childLayout=tableLayout;fixedRows=0;rowLines=1;fontStyle=1;align=center;resizeLast=1;html=1;columnLines=1;" parent="1" vertex="1">
          <mxGeometry x="20" y="870" width="670" height="670" as="geometry" />
        </mxCell>
        <mxCell id="4ieldCy7oNxamIffwvE--21" value="" style="shape=tableRow;horizontal=0;startSize=0;swimlaneHead=0;swimlaneBody=0;fillColor=none;collapsible=0;dropTarget=0;points=[[0,0.5],[1,0.5]];portConstraint=eastwest;top=0;left=0;right=0;bottom=1;" parent="4ieldCy7oNxamIffwvE--20" vertex="1">
          <mxGeometry y="30" width="670" height="213" as="geometry" />
        </mxCell>
        <mxCell id="4ieldCy7oNxamIffwvE--22" value="Start" style="shape=partialRectangle;connectable=0;fillColor=none;top=0;left=0;bottom=0;right=0;fontStyle=1;overflow=hidden;whiteSpace=wrap;html=1;" parent="4ieldCy7oNxamIffwvE--21" vertex="1">
          <mxGeometry width="50" height="213" as="geometry">
            <mxRectangle width="50" height="213" as="alternateBounds" />
          </mxGeometry>
        </mxCell>
        <mxCell id="4ieldCy7oNxamIffwvE--23" value="" style="shape=partialRectangle;connectable=0;fillColor=none;top=0;left=0;bottom=0;right=0;align=left;spacingLeft=6;fontStyle=5;overflow=hidden;whiteSpace=wrap;html=1;" parent="4ieldCy7oNxamIffwvE--21" vertex="1">
          <mxGeometry x="50" width="620" height="213" as="geometry">
            <mxRectangle width="620" height="213" as="alternateBounds" />
          </mxGeometry>
        </mxCell>
        <mxCell id="4ieldCy7oNxamIffwvE--24" value="" style="shape=tableRow;horizontal=0;startSize=0;swimlaneHead=0;swimlaneBody=0;fillColor=none;collapsible=0;dropTarget=0;points=[[0,0.5],[1,0.5]];portConstraint=eastwest;top=0;left=0;right=0;bottom=0;" parent="4ieldCy7oNxamIffwvE--20" vertex="1">
          <mxGeometry y="243" width="670" height="214" as="geometry" />
        </mxCell>
        <mxCell id="4ieldCy7oNxamIffwvE--25" value="&lt;b&gt;0-59s&lt;/b&gt;" style="shape=partialRectangle;connectable=0;fillColor=none;top=0;left=0;bottom=0;right=0;editable=1;overflow=hidden;whiteSpace=wrap;html=1;" parent="4ieldCy7oNxamIffwvE--24" vertex="1">
          <mxGeometry width="50" height="214" as="geometry">
            <mxRectangle width="50" height="214" as="alternateBounds" />
          </mxGeometry>
        </mxCell>
        <mxCell id="4ieldCy7oNxamIffwvE--26" value="" style="shape=partialRectangle;connectable=0;fillColor=none;top=0;left=0;bottom=0;right=0;align=left;spacingLeft=6;overflow=hidden;whiteSpace=wrap;html=1;fontStyle=1;strokeWidth=3;perimeterSpacing=0;" parent="4ieldCy7oNxamIffwvE--24" vertex="1">
          <mxGeometry x="50" width="620" height="214" as="geometry">
            <mxRectangle width="620" height="214" as="alternateBounds" />
          </mxGeometry>
        </mxCell>
        <mxCell id="4ieldCy7oNxamIffwvE--27" value="" style="shape=tableRow;horizontal=0;startSize=0;swimlaneHead=0;swimlaneBody=0;fillColor=none;collapsible=0;dropTarget=0;points=[[0,0.5],[1,0.5]];portConstraint=eastwest;top=0;left=0;right=0;bottom=0;" parent="4ieldCy7oNxamIffwvE--20" vertex="1">
          <mxGeometry y="457" width="670" height="213" as="geometry" />
        </mxCell>
        <mxCell id="4ieldCy7oNxamIffwvE--28" value="&lt;b&gt;60s-stop&lt;/b&gt;" style="shape=partialRectangle;connectable=0;fillColor=none;top=0;left=0;bottom=0;right=0;editable=1;overflow=hidden;whiteSpace=wrap;html=1;" parent="4ieldCy7oNxamIffwvE--27" vertex="1">
          <mxGeometry width="50" height="213" as="geometry">
            <mxRectangle width="50" height="213" as="alternateBounds" />
          </mxGeometry>
        </mxCell>
        <mxCell id="4ieldCy7oNxamIffwvE--29" value="" style="shape=partialRectangle;connectable=0;fillColor=none;top=0;left=0;bottom=0;right=0;align=left;spacingLeft=6;overflow=hidden;whiteSpace=wrap;html=1;" parent="4ieldCy7oNxamIffwvE--27" vertex="1">
          <mxGeometry x="50" width="620" height="213" as="geometry">
            <mxRectangle width="620" height="213" as="alternateBounds" />
          </mxGeometry>
        </mxCell>
        <mxCell id="4ieldCy7oNxamIffwvE--48" style="edgeStyle=orthogonalEdgeStyle;rounded=0;orthogonalLoop=1;jettySize=auto;html=1;" parent="1" source="4ieldCy7oNxamIffwvE--33" target="4ieldCy7oNxamIffwvE--43" edge="1">
          <mxGeometry relative="1" as="geometry" />
        </mxCell>
        <mxCell id="4ieldCy7oNxamIffwvE--49" value="Start Thread" style="edgeLabel;html=1;align=center;verticalAlign=middle;resizable=0;points=[];" parent="4ieldCy7oNxamIffwvE--48" vertex="1" connectable="0">
          <mxGeometry x="-0.3309" y="1" relative="1" as="geometry">
            <mxPoint as="offset" />
          </mxGeometry>
        </mxCell>
        <mxCell id="4ieldCy7oNxamIffwvE--51" style="edgeStyle=orthogonalEdgeStyle;rounded=0;orthogonalLoop=1;jettySize=auto;html=1;" parent="1" source="4ieldCy7oNxamIffwvE--33" target="4ieldCy7oNxamIffwvE--50" edge="1">
          <mxGeometry relative="1" as="geometry" />
        </mxCell>
        <mxCell id="4ieldCy7oNxamIffwvE--67" style="edgeStyle=orthogonalEdgeStyle;rounded=0;orthogonalLoop=1;jettySize=auto;html=1;" parent="1" source="4ieldCy7oNxamIffwvE--33" target="4ieldCy7oNxamIffwvE--55" edge="1">
          <mxGeometry relative="1" as="geometry" />
        </mxCell>
        <mxCell id="4ieldCy7oNxamIffwvE--33" value="&lt;b&gt;[ERP]&amp;nbsp;&lt;/b&gt;&amp;nbsp;- Start Terminal" style="rounded=1;whiteSpace=wrap;html=1;absoluteArcSize=1;arcSize=14;strokeWidth=2;" parent="1" vertex="1">
          <mxGeometry x="110" y="930" width="100" height="60" as="geometry" />
        </mxCell>
        <mxCell id="4ieldCy7oNxamIffwvE--37" style="edgeStyle=orthogonalEdgeStyle;rounded=0;orthogonalLoop=1;jettySize=auto;html=1;entryX=0.5;entryY=0;entryDx=0;entryDy=0;" parent="1" source="4ieldCy7oNxamIffwvE--34" target="4ieldCy7oNxamIffwvE--36" edge="1">
          <mxGeometry relative="1" as="geometry">
            <Array as="points">
              <mxPoint x="390" y="1145" />
              <mxPoint x="550" y="1145" />
            </Array>
          </mxGeometry>
        </mxCell>
        <mxCell id="4ieldCy7oNxamIffwvE--38" value="UPC_UA current day plan variables" style="edgeLabel;html=1;align=center;verticalAlign=middle;resizable=0;points=[];" parent="4ieldCy7oNxamIffwvE--37" vertex="1" connectable="0">
          <mxGeometry x="0.3071" relative="1" as="geometry">
            <mxPoint x="-89" as="offset" />
          </mxGeometry>
        </mxCell>
        <mxCell id="4ieldCy7oNxamIffwvE--53" style="edgeStyle=orthogonalEdgeStyle;rounded=0;orthogonalLoop=1;jettySize=auto;html=1;entryX=0.5;entryY=0;entryDx=0;entryDy=0;exitX=0;exitY=0.5;exitDx=0;exitDy=0;" parent="1" source="4ieldCy7oNxamIffwvE--34" target="4ieldCy7oNxamIffwvE--52" edge="1">
          <mxGeometry relative="1" as="geometry">
            <Array as="points">
              <mxPoint x="330" y="1055" />
              <mxPoint x="330" y="1260" />
            </Array>
          </mxGeometry>
        </mxCell>
        <mxCell id="4ieldCy7oNxamIffwvE--34" value="&lt;b&gt;[MES] &lt;/b&gt;- Start current day plan&lt;b&gt;&amp;nbsp;&lt;/b&gt;" style="rounded=1;whiteSpace=wrap;html=1;absoluteArcSize=1;arcSize=14;strokeWidth=2;" parent="1" vertex="1">
          <mxGeometry x="340" y="1030" width="100" height="50" as="geometry" />
        </mxCell>
        <mxCell id="4ieldCy7oNxamIffwvE--59" style="edgeStyle=orthogonalEdgeStyle;rounded=0;orthogonalLoop=1;jettySize=auto;html=1;" parent="1" source="4ieldCy7oNxamIffwvE--36" target="4ieldCy7oNxamIffwvE--57" edge="1">
          <mxGeometry relative="1" as="geometry" />
        </mxCell>
        <mxCell id="4ieldCy7oNxamIffwvE--60" style="edgeStyle=orthogonalEdgeStyle;rounded=0;orthogonalLoop=1;jettySize=auto;html=1;entryX=0.5;entryY=0;entryDx=0;entryDy=0;" parent="1" source="4ieldCy7oNxamIffwvE--36" target="4ieldCy7oNxamIffwvE--58" edge="1">
          <mxGeometry relative="1" as="geometry" />
        </mxCell>
        <mxCell id="4ieldCy7oNxamIffwvE--36" value="&lt;b&gt;[Plant] &lt;/b&gt;- Execute current orders&lt;b&gt;&amp;nbsp;&lt;/b&gt;" style="rounded=1;whiteSpace=wrap;html=1;absoluteArcSize=1;arcSize=14;strokeWidth=2;" parent="1" vertex="1">
          <mxGeometry x="500" y="1260" width="100" height="50" as="geometry" />
        </mxCell>
        <mxCell id="4ieldCy7oNxamIffwvE--54" style="edgeStyle=orthogonalEdgeStyle;rounded=0;orthogonalLoop=1;jettySize=auto;html=1;entryX=0.5;entryY=1;entryDx=0;entryDy=0;entryPerimeter=0;" parent="1" source="4ieldCy7oNxamIffwvE--43" target="4ieldCy7oNxamIffwvE--46" edge="1">
          <mxGeometry relative="1" as="geometry">
            <Array as="points">
              <mxPoint x="633" y="1220" />
              <mxPoint x="910" y="1220" />
            </Array>
          </mxGeometry>
        </mxCell>
        <mxCell id="4ieldCy7oNxamIffwvE--43" value="&lt;b&gt;[ERP]&amp;nbsp;&lt;/b&gt;&amp;nbsp;- Send orders to the database" style="rounded=1;whiteSpace=wrap;html=1;absoluteArcSize=1;arcSize=14;strokeWidth=2;" parent="1" vertex="1">
          <mxGeometry x="590" y="1130" width="85" height="50" as="geometry" />
        </mxCell>
        <mxCell id="4ieldCy7oNxamIffwvE--45" value="" style="edgeStyle=orthogonalEdgeStyle;rounded=0;orthogonalLoop=1;jettySize=auto;html=1;entryX=1;entryY=0.5;entryDx=0;entryDy=0;exitX=0.55;exitY=0.95;exitDx=0;exitDy=0;exitPerimeter=0;" parent="1" source="4ieldCy7oNxamIffwvE--44" target="4ieldCy7oNxamIffwvE--43" edge="1">
          <mxGeometry relative="1" as="geometry">
            <Array as="points">
              <mxPoint x="806" y="1155" />
            </Array>
          </mxGeometry>
        </mxCell>
        <mxCell id="4ieldCy7oNxamIffwvE--44" value="Client orders" style="ellipse;shape=cloud;whiteSpace=wrap;html=1;" parent="1" vertex="1">
          <mxGeometry x="740" y="1010" width="120" height="80" as="geometry" />
        </mxCell>
        <mxCell id="4ieldCy7oNxamIffwvE--68" style="edgeStyle=orthogonalEdgeStyle;rounded=0;orthogonalLoop=1;jettySize=auto;html=1;" parent="1" source="4ieldCy7oNxamIffwvE--46" target="4ieldCy7oNxamIffwvE--55" edge="1">
          <mxGeometry relative="1" as="geometry">
            <Array as="points">
              <mxPoint x="910" y="1240" />
              <mxPoint x="585" y="1240" />
              <mxPoint x="585" y="1180" />
            </Array>
          </mxGeometry>
        </mxCell>
        <mxCell id="4ieldCy7oNxamIffwvE--46" value="Orders" style="shape=cylinder3;whiteSpace=wrap;html=1;boundedLbl=1;backgroundOutline=1;size=15;" parent="1" vertex="1">
          <mxGeometry x="880" y="1120" width="60" height="80" as="geometry" />
        </mxCell>
        <mxCell id="4ieldCy7oNxamIffwvE--50" value="&lt;b&gt;[ERP]&amp;nbsp;&lt;/b&gt;&amp;nbsp;- Update Terminal for new data at each second (or real-time)" style="rounded=1;whiteSpace=wrap;html=1;absoluteArcSize=1;arcSize=14;strokeWidth=2;" parent="1" vertex="1">
          <mxGeometry x="80" y="1260" width="160" height="50" as="geometry" />
        </mxCell>
        <mxCell id="4ieldCy7oNxamIffwvE--52" value="&lt;b&gt;[MES]&amp;nbsp;&lt;/b&gt;&amp;nbsp;- Update Terminal for new current piece command in each second (or real-time)" style="rounded=1;whiteSpace=wrap;html=1;absoluteArcSize=1;arcSize=14;strokeWidth=2;" parent="1" vertex="1">
          <mxGeometry x="250" y="1260" width="170" height="50" as="geometry" />
        </mxCell>
        <mxCell id="4ieldCy7oNxamIffwvE--69" style="edgeStyle=orthogonalEdgeStyle;rounded=0;orthogonalLoop=1;jettySize=auto;html=1;" parent="1" source="4ieldCy7oNxamIffwvE--55" edge="1">
          <mxGeometry relative="1" as="geometry">
            <mxPoint x="160" y="1180" as="targetPoint" />
          </mxGeometry>
        </mxCell>
        <mxCell id="FbVCiiSNtt8WnUe1-biI-2" style="edgeStyle=orthogonalEdgeStyle;rounded=0;orthogonalLoop=1;jettySize=auto;html=1;exitX=0.5;exitY=1;exitDx=0;exitDy=0;entryX=0;entryY=0.5;entryDx=0;entryDy=0;entryPerimeter=0;" parent="1" source="4ieldCy7oNxamIffwvE--55" target="FbVCiiSNtt8WnUe1-biI-1" edge="1">
          <mxGeometry relative="1" as="geometry">
            <Array as="points">
              <mxPoint x="240" y="1250" />
            </Array>
          </mxGeometry>
        </mxCell>
        <mxCell id="FbVCiiSNtt8WnUe1-biI-3" value="Update" style="edgeLabel;html=1;align=center;verticalAlign=middle;resizable=0;points=[];" parent="FbVCiiSNtt8WnUe1-biI-2" vertex="1" connectable="0">
          <mxGeometry x="0.4748" y="1" relative="1" as="geometry">
            <mxPoint as="offset" />
          </mxGeometry>
        </mxCell>
        <mxCell id="4ieldCy7oNxamIffwvE--55" value="&lt;b&gt;[MPS] &lt;/b&gt;-&lt;b&gt;&amp;nbsp;&lt;br&gt;&lt;/b&gt;Realtime&lt;br&gt;Update&amp;nbsp;" style="rhombus;whiteSpace=wrap;html=1;" parent="1" vertex="1">
          <mxGeometry x="190" y="1130" width="100" height="100" as="geometry" />
        </mxCell>
        <mxCell id="FbVCiiSNtt8WnUe1-biI-4" style="edgeStyle=orthogonalEdgeStyle;rounded=0;orthogonalLoop=1;jettySize=auto;html=1;entryX=0.5;entryY=1;entryDx=0;entryDy=0;entryPerimeter=0;" parent="1" source="4ieldCy7oNxamIffwvE--56" target="FbVCiiSNtt8WnUe1-biI-1" edge="1">
          <mxGeometry relative="1" as="geometry">
            <Array as="points">
              <mxPoint x="155" y="1570" />
              <mxPoint x="980" y="1570" />
            </Array>
          </mxGeometry>
        </mxCell>
        <mxCell id="FbVCiiSNtt8WnUe1-biI-5" value="Move current Day" style="edgeLabel;html=1;align=center;verticalAlign=middle;resizable=0;points=[];" parent="FbVCiiSNtt8WnUe1-biI-4" vertex="1" connectable="0">
          <mxGeometry x="0.8623" y="-1" relative="1" as="geometry">
            <mxPoint as="offset" />
          </mxGeometry>
        </mxCell>
        <mxCell id="4ieldCy7oNxamIffwvE--56" value="&lt;b&gt;[MPS] &lt;/b&gt;-&lt;b&gt;&amp;nbsp;&lt;br&gt;&lt;/b&gt;End of day&lt;br&gt;Update&amp;nbsp;" style="rhombus;whiteSpace=wrap;html=1;" parent="1" vertex="1">
          <mxGeometry x="100" y="1460" width="110" height="70" as="geometry" />
        </mxCell>
        <mxCell id="4ieldCy7oNxamIffwvE--63" style="edgeStyle=orthogonalEdgeStyle;rounded=0;orthogonalLoop=1;jettySize=auto;html=1;" parent="1" source="4ieldCy7oNxamIffwvE--57" target="4ieldCy7oNxamIffwvE--62" edge="1">
          <mxGeometry relative="1" as="geometry" />
        </mxCell>
        <mxCell id="4ieldCy7oNxamIffwvE--57" value="&lt;b&gt;[Plant] &lt;/b&gt;- Feedback of produced pieces&lt;b&gt;&amp;nbsp;&lt;/b&gt;" style="rounded=1;whiteSpace=wrap;html=1;absoluteArcSize=1;arcSize=14;strokeWidth=2;" parent="1" vertex="1">
          <mxGeometry x="450" y="1370" width="100" height="50" as="geometry" />
        </mxCell>
        <mxCell id="4ieldCy7oNxamIffwvE--64" style="edgeStyle=orthogonalEdgeStyle;rounded=0;orthogonalLoop=1;jettySize=auto;html=1;" parent="1" source="4ieldCy7oNxamIffwvE--58" target="4ieldCy7oNxamIffwvE--62" edge="1">
          <mxGeometry relative="1" as="geometry" />
        </mxCell>
        <mxCell id="4ieldCy7oNxamIffwvE--58" value="&lt;b&gt;[Plant] &lt;/b&gt;- Feedback of werehouse stock&lt;b&gt;&amp;nbsp;&lt;/b&gt;" style="rounded=1;whiteSpace=wrap;html=1;absoluteArcSize=1;arcSize=14;strokeWidth=2;" parent="1" vertex="1">
          <mxGeometry x="570" y="1370" width="100" height="50" as="geometry" />
        </mxCell>
        <mxCell id="4ieldCy7oNxamIffwvE--66" style="edgeStyle=orthogonalEdgeStyle;rounded=0;orthogonalLoop=1;jettySize=auto;html=1;" parent="1" source="4ieldCy7oNxamIffwvE--61" target="4ieldCy7oNxamIffwvE--56" edge="1">
          <mxGeometry relative="1" as="geometry" />
        </mxCell>
        <mxCell id="4ieldCy7oNxamIffwvE--61" value="&lt;b&gt;[ERP] -&lt;/b&gt;&amp;nbsp;Run last update and change current day" style="rounded=1;whiteSpace=wrap;html=1;absoluteArcSize=1;arcSize=14;strokeWidth=2;" parent="1" vertex="1">
          <mxGeometry x="105" y="1360" width="100" height="60" as="geometry" />
        </mxCell>
        <mxCell id="4ieldCy7oNxamIffwvE--65" style="edgeStyle=orthogonalEdgeStyle;rounded=0;orthogonalLoop=1;jettySize=auto;html=1;entryX=1;entryY=0.5;entryDx=0;entryDy=0;" parent="1" source="4ieldCy7oNxamIffwvE--62" target="4ieldCy7oNxamIffwvE--61" edge="1">
          <mxGeometry relative="1" as="geometry" />
        </mxCell>
        <mxCell id="4ieldCy7oNxamIffwvE--62" value="&lt;b&gt;[MES] &lt;/b&gt;- Receive feedback and send information to the ERP" style="rounded=1;whiteSpace=wrap;html=1;absoluteArcSize=1;arcSize=14;strokeWidth=2;" parent="1" vertex="1">
          <mxGeometry x="470" y="1460" width="180" height="50" as="geometry" />
        </mxCell>
        <mxCell id="FbVCiiSNtt8WnUe1-biI-1" value="Schedule Plan" style="shape=cylinder3;whiteSpace=wrap;html=1;boundedLbl=1;backgroundOutline=1;size=15;" parent="1" vertex="1">
          <mxGeometry x="950" y="1210" width="60" height="80" as="geometry" />
        </mxCell>
        <mxCell id="UhRRYUa_ECII8WTZkb7O-3" style="edgeStyle=orthogonalEdgeStyle;rounded=0;orthogonalLoop=1;jettySize=auto;html=1;entryX=0.5;entryY=1;entryDx=0;entryDy=0;exitX=0;exitY=0.5;exitDx=0;exitDy=0;exitPerimeter=0;" parent="1" source="UhRRYUa_ECII8WTZkb7O-2" target="4ieldCy7oNxamIffwvE--52" edge="1">
          <mxGeometry relative="1" as="geometry">
            <Array as="points">
              <mxPoint x="750" y="1330" />
              <mxPoint x="335" y="1330" />
            </Array>
          </mxGeometry>
        </mxCell>
        <mxCell id="UhRRYUa_ECII8WTZkb7O-2" value="Wharehouse&lt;br&gt;Stock" style="shape=cylinder3;whiteSpace=wrap;html=1;boundedLbl=1;backgroundOutline=1;size=15;" parent="1" vertex="1">
          <mxGeometry x="750" y="1290" width="90" height="70" as="geometry" />
        </mxCell>
      </root>
    </mxGraphModel>
  </diagram>
  <diagram id="-O9gCwq_KkPedrlTWj8u" name="Software-Structure">
    <mxGraphModel dx="1160" dy="720" grid="1" gridSize="10" guides="1" tooltips="1" connect="1" arrows="1" fold="1" page="1" pageScale="1" pageWidth="827" pageHeight="1169" math="0" shadow="0">
      <root>
        <mxCell id="0" />
        <mxCell id="1" parent="0" />
        <mxCell id="eZUI2_qZ9X7XSRv0RE9L-6" value="" style="edgeStyle=orthogonalEdgeStyle;rounded=0;orthogonalLoop=1;jettySize=auto;html=1;endArrow=none;endFill=0;" parent="1" source="eZUI2_qZ9X7XSRv0RE9L-1" target="eZUI2_qZ9X7XSRv0RE9L-3" edge="1">
          <mxGeometry relative="1" as="geometry" />
        </mxCell>
        <mxCell id="eZUI2_qZ9X7XSRv0RE9L-10" style="edgeStyle=orthogonalEdgeStyle;rounded=0;orthogonalLoop=1;jettySize=auto;html=1;endArrow=none;endFill=0;" parent="1" source="eZUI2_qZ9X7XSRv0RE9L-1" target="eZUI2_qZ9X7XSRv0RE9L-7" edge="1">
          <mxGeometry relative="1" as="geometry">
            <Array as="points">
              <mxPoint x="155" y="88" />
              <mxPoint x="155" y="248" />
            </Array>
          </mxGeometry>
        </mxCell>
        <mxCell id="eZUI2_qZ9X7XSRv0RE9L-11" style="edgeStyle=orthogonalEdgeStyle;rounded=0;orthogonalLoop=1;jettySize=auto;html=1;entryX=-0.004;entryY=0.518;entryDx=0;entryDy=0;entryPerimeter=0;endArrow=none;endFill=0;" parent="1" source="eZUI2_qZ9X7XSRv0RE9L-1" target="eZUI2_qZ9X7XSRv0RE9L-8" edge="1">
          <mxGeometry relative="1" as="geometry" />
        </mxCell>
        <mxCell id="eZUI2_qZ9X7XSRv0RE9L-12" style="edgeStyle=orthogonalEdgeStyle;rounded=0;orthogonalLoop=1;jettySize=auto;html=1;entryX=0.012;entryY=0.528;entryDx=0;entryDy=0;entryPerimeter=0;endArrow=none;endFill=0;" parent="1" source="eZUI2_qZ9X7XSRv0RE9L-1" target="eZUI2_qZ9X7XSRv0RE9L-9" edge="1">
          <mxGeometry relative="1" as="geometry" />
        </mxCell>
        <mxCell id="eZUI2_qZ9X7XSRv0RE9L-1" value="PLA-App" style="aspect=fixed;html=1;points=[];align=center;image;fontSize=12;image=img/lib/azure2/general/Folder_Blank.svg;" parent="1" vertex="1">
          <mxGeometry x="50" y="60" width="69" height="56.00000000000001" as="geometry" />
        </mxCell>
        <mxCell id="t7h9JxyBUWeAw55wg_5o-6" style="edgeStyle=orthogonalEdgeStyle;rounded=0;orthogonalLoop=1;jettySize=auto;html=1;entryX=0;entryY=0.5;entryDx=0;entryDy=0;entryPerimeter=0;endArrow=none;endFill=0;" parent="1" source="eZUI2_qZ9X7XSRv0RE9L-3" target="eZUI2_qZ9X7XSRv0RE9L-13" edge="1">
          <mxGeometry relative="1" as="geometry" />
        </mxCell>
        <mxCell id="t7h9JxyBUWeAw55wg_5o-7" style="edgeStyle=orthogonalEdgeStyle;rounded=0;orthogonalLoop=1;jettySize=auto;html=1;endArrow=none;endFill=0;" parent="1" source="eZUI2_qZ9X7XSRv0RE9L-3" target="eZUI2_qZ9X7XSRv0RE9L-14" edge="1">
          <mxGeometry relative="1" as="geometry" />
        </mxCell>
        <mxCell id="t7h9JxyBUWeAw55wg_5o-8" style="edgeStyle=orthogonalEdgeStyle;rounded=0;orthogonalLoop=1;jettySize=auto;html=1;entryX=0;entryY=0.5;entryDx=0;entryDy=0;endArrow=none;endFill=0;" parent="1" source="eZUI2_qZ9X7XSRv0RE9L-3" target="eZUI2_qZ9X7XSRv0RE9L-15" edge="1">
          <mxGeometry relative="1" as="geometry" />
        </mxCell>
        <mxCell id="eZUI2_qZ9X7XSRv0RE9L-3" value="src" style="aspect=fixed;html=1;points=[];align=center;image;fontSize=12;image=img/lib/azure2/general/Folder_Blank.svg;imageBackground=none;imageAspect=1;" parent="1" vertex="1">
          <mxGeometry x="190" y="116" width="69" height="56.00000000000001" as="geometry" />
        </mxCell>
        <mxCell id="t7h9JxyBUWeAw55wg_5o-17" style="edgeStyle=orthogonalEdgeStyle;rounded=0;orthogonalLoop=1;jettySize=auto;html=1;entryX=0;entryY=0.5;entryDx=0;entryDy=0;" parent="1" source="eZUI2_qZ9X7XSRv0RE9L-7" target="t7h9JxyBUWeAw55wg_5o-16" edge="1">
          <mxGeometry relative="1" as="geometry" />
        </mxCell>
        <mxCell id="eZUI2_qZ9X7XSRv0RE9L-7" value="test" style="aspect=fixed;html=1;points=[];align=center;image;fontSize=12;image=img/lib/azure2/general/Folder_Blank.svg;" parent="1" vertex="1">
          <mxGeometry x="190" y="220" width="69" height="56.00000000000001" as="geometry" />
        </mxCell>
        <mxCell id="t7h9JxyBUWeAw55wg_5o-14" style="edgeStyle=orthogonalEdgeStyle;rounded=0;orthogonalLoop=1;jettySize=auto;html=1;entryX=0;entryY=0.5;entryDx=0;entryDy=0;endArrow=none;endFill=0;" parent="1" source="eZUI2_qZ9X7XSRv0RE9L-8" target="t7h9JxyBUWeAw55wg_5o-10" edge="1">
          <mxGeometry relative="1" as="geometry" />
        </mxCell>
        <mxCell id="t7h9JxyBUWeAw55wg_5o-15" style="edgeStyle=orthogonalEdgeStyle;rounded=0;orthogonalLoop=1;jettySize=auto;html=1;entryX=0;entryY=0.5;entryDx=0;entryDy=0;endArrow=none;endFill=0;" parent="1" source="eZUI2_qZ9X7XSRv0RE9L-8" target="t7h9JxyBUWeAw55wg_5o-11" edge="1">
          <mxGeometry relative="1" as="geometry">
            <Array as="points">
              <mxPoint x="350" y="348" />
              <mxPoint x="350" y="548" />
            </Array>
          </mxGeometry>
        </mxCell>
        <mxCell id="eZUI2_qZ9X7XSRv0RE9L-8" value="server" style="aspect=fixed;html=1;points=[];align=center;image;fontSize=12;image=img/lib/azure2/general/Folder_Blank.svg;" parent="1" vertex="1">
          <mxGeometry x="190" y="320" width="69" height="56.00000000000001" as="geometry" />
        </mxCell>
        <mxCell id="t7h9JxyBUWeAw55wg_5o-21" style="edgeStyle=orthogonalEdgeStyle;rounded=0;orthogonalLoop=1;jettySize=auto;html=1;endArrow=none;endFill=0;" parent="1" source="eZUI2_qZ9X7XSRv0RE9L-9" target="t7h9JxyBUWeAw55wg_5o-18" edge="1">
          <mxGeometry relative="1" as="geometry">
            <Array as="points">
              <mxPoint x="280" y="448" />
              <mxPoint x="280" y="644" />
            </Array>
          </mxGeometry>
        </mxCell>
        <mxCell id="t7h9JxyBUWeAw55wg_5o-22" style="edgeStyle=orthogonalEdgeStyle;rounded=0;orthogonalLoop=1;jettySize=auto;html=1;" parent="1" source="eZUI2_qZ9X7XSRv0RE9L-9" target="t7h9JxyBUWeAw55wg_5o-19" edge="1">
          <mxGeometry relative="1" as="geometry">
            <Array as="points">
              <mxPoint x="280" y="448" />
              <mxPoint x="280" y="734" />
            </Array>
          </mxGeometry>
        </mxCell>
        <mxCell id="t7h9JxyBUWeAw55wg_5o-23" style="edgeStyle=orthogonalEdgeStyle;rounded=0;orthogonalLoop=1;jettySize=auto;html=1;" parent="1" source="eZUI2_qZ9X7XSRv0RE9L-9" target="t7h9JxyBUWeAw55wg_5o-20" edge="1">
          <mxGeometry relative="1" as="geometry">
            <Array as="points">
              <mxPoint x="280" y="448" />
              <mxPoint x="280" y="814" />
            </Array>
          </mxGeometry>
        </mxCell>
        <mxCell id="eZUI2_qZ9X7XSRv0RE9L-9" value="docs" style="aspect=fixed;html=1;points=[];align=center;image;fontSize=12;image=img/lib/azure2/general/Folder_Blank.svg;" parent="1" vertex="1">
          <mxGeometry x="190" y="420" width="69" height="56.00000000000001" as="geometry" />
        </mxCell>
        <mxCell id="t7h9JxyBUWeAw55wg_5o-3" style="edgeStyle=orthogonalEdgeStyle;rounded=0;orthogonalLoop=1;jettySize=auto;html=1;endArrow=none;endFill=0;" parent="1" source="eZUI2_qZ9X7XSRv0RE9L-13" target="eZUI2_qZ9X7XSRv0RE9L-16" edge="1">
          <mxGeometry relative="1" as="geometry" />
        </mxCell>
        <mxCell id="t7h9JxyBUWeAw55wg_5o-4" style="edgeStyle=orthogonalEdgeStyle;rounded=0;orthogonalLoop=1;jettySize=auto;html=1;entryX=0;entryY=0.5;entryDx=0;entryDy=0;endArrow=none;endFill=0;" parent="1" source="eZUI2_qZ9X7XSRv0RE9L-13" target="t7h9JxyBUWeAw55wg_5o-1" edge="1">
          <mxGeometry relative="1" as="geometry" />
        </mxCell>
        <mxCell id="t7h9JxyBUWeAw55wg_5o-5" style="edgeStyle=orthogonalEdgeStyle;rounded=0;orthogonalLoop=1;jettySize=auto;html=1;entryX=0;entryY=0.5;entryDx=0;entryDy=0;endArrow=none;endFill=0;" parent="1" source="eZUI2_qZ9X7XSRv0RE9L-13" target="t7h9JxyBUWeAw55wg_5o-2" edge="1">
          <mxGeometry relative="1" as="geometry" />
        </mxCell>
        <mxCell id="eZUI2_qZ9X7XSRv0RE9L-13" value="Modules" style="sketch=0;aspect=fixed;pointerEvents=1;shadow=0;dashed=0;html=1;strokeColor=none;labelPosition=center;verticalLabelPosition=bottom;verticalAlign=top;align=center;fillColor=#00188D;shape=mxgraph.mscae.enterprise.folder" parent="1" vertex="1">
          <mxGeometry x="440" y="40" width="58.14" height="50" as="geometry" />
        </mxCell>
        <mxCell id="eZUI2_qZ9X7XSRv0RE9L-14" value="ERP.py" style="shape=image;html=1;verticalAlign=top;verticalLabelPosition=bottom;labelBackgroundColor=#ffffff;imageAspect=0;aspect=fixed;image=https://cdn1.iconfinder.com/data/icons/ionicons-fill-vol-2/512/logo-python-128.png" parent="1" vertex="1">
          <mxGeometry x="440" y="114" width="60" height="60" as="geometry" />
        </mxCell>
        <mxCell id="eZUI2_qZ9X7XSRv0RE9L-15" value="MES.py" style="shape=image;html=1;verticalAlign=top;verticalLabelPosition=bottom;labelBackgroundColor=#ffffff;imageAspect=0;aspect=fixed;image=https://cdn1.iconfinder.com/data/icons/ionicons-fill-vol-2/512/logo-python-128.png" parent="1" vertex="1">
          <mxGeometry x="440" y="210" width="60" height="60" as="geometry" />
        </mxCell>
        <mxCell id="eZUI2_qZ9X7XSRv0RE9L-16" value="MPS.py" style="shape=image;html=1;verticalAlign=top;verticalLabelPosition=bottom;labelBackgroundColor=#ffffff;imageAspect=0;aspect=fixed;image=https://cdn1.iconfinder.com/data/icons/ionicons-fill-vol-2/512/logo-python-128.png" parent="1" vertex="1">
          <mxGeometry x="710" y="10" width="60" height="60" as="geometry" />
        </mxCell>
        <mxCell id="t7h9JxyBUWeAw55wg_5o-1" value="Udp_comm_class.py" style="shape=image;html=1;verticalAlign=top;verticalLabelPosition=bottom;labelBackgroundColor=#ffffff;imageAspect=0;aspect=fixed;image=https://cdn1.iconfinder.com/data/icons/ionicons-fill-vol-2/512/logo-python-128.png" parent="1" vertex="1">
          <mxGeometry x="710" y="100" width="60" height="60" as="geometry" />
        </mxCell>
        <mxCell id="t7h9JxyBUWeAw55wg_5o-2" value="Database_Comm_class.py" style="shape=image;html=1;verticalAlign=top;verticalLabelPosition=bottom;labelBackgroundColor=#ffffff;imageAspect=0;aspect=fixed;image=https://cdn1.iconfinder.com/data/icons/ionicons-fill-vol-2/512/logo-python-128.png" parent="1" vertex="1">
          <mxGeometry x="710" y="190" width="60" height="60" as="geometry" />
        </mxCell>
        <mxCell id="t7h9JxyBUWeAw55wg_5o-25" style="edgeStyle=orthogonalEdgeStyle;rounded=0;orthogonalLoop=1;jettySize=auto;html=1;endArrow=none;endFill=0;" parent="1" source="t7h9JxyBUWeAw55wg_5o-9" target="t7h9JxyBUWeAw55wg_5o-24" edge="1">
          <mxGeometry relative="1" as="geometry" />
        </mxCell>
        <mxCell id="t7h9JxyBUWeAw55wg_5o-9" value="CodeSYS Plant project" style="aspect=fixed;html=1;points=[];align=center;image;fontSize=12;image=img/lib/azure2/general/Folder_Blank.svg;" parent="1" vertex="1">
          <mxGeometry x="60" y="990" width="69" height="56.00000000000001" as="geometry" />
        </mxCell>
        <mxCell id="t7h9JxyBUWeAw55wg_5o-10" value="XML-sender.py" style="shape=image;html=1;verticalAlign=top;verticalLabelPosition=bottom;labelBackgroundColor=#ffffff;imageAspect=0;aspect=fixed;image=https://cdn1.iconfinder.com/data/icons/ionicons-fill-vol-2/512/logo-python-128.png" parent="1" vertex="1">
          <mxGeometry x="440" y="420" width="60" height="60" as="geometry" />
        </mxCell>
        <mxCell id="t7h9JxyBUWeAw55wg_5o-11" value="Client-Orders" style="shape=image;html=1;verticalAlign=top;verticalLabelPosition=bottom;labelBackgroundColor=#ffffff;imageAspect=0;aspect=fixed;image=https://cdn1.iconfinder.com/data/icons/bootstrap-vol-3/16/filetype-xml-128.png" parent="1" vertex="1">
          <mxGeometry x="444" y="520" width="56" height="56" as="geometry" />
        </mxCell>
        <mxCell id="t7h9JxyBUWeAw55wg_5o-16" value="To be implemented&amp;nbsp;" style="shape=image;html=1;verticalAlign=top;verticalLabelPosition=bottom;labelBackgroundColor=#ffffff;imageAspect=0;aspect=fixed;image=https://cdn0.iconfinder.com/data/icons/evericons-24px-vol-1/24/menu-dots-128.png" parent="1" vertex="1">
          <mxGeometry x="438.14" y="310" width="60" height="60" as="geometry" />
        </mxCell>
        <mxCell id="t7h9JxyBUWeAw55wg_5o-18" value="Code Documentation" style="sketch=0;pointerEvents=1;shadow=0;dashed=0;html=1;strokeColor=none;fillColor=#505050;labelPosition=center;verticalLabelPosition=bottom;verticalAlign=top;outlineConnect=0;align=center;shape=mxgraph.office.concepts.document;" parent="1" vertex="1">
          <mxGeometry x="448.14" y="620" width="40" height="47" as="geometry" />
        </mxCell>
        <mxCell id="t7h9JxyBUWeAw55wg_5o-19" value="Code Report" style="sketch=0;pointerEvents=1;shadow=0;dashed=0;html=1;strokeColor=none;fillColor=#505050;labelPosition=center;verticalLabelPosition=bottom;verticalAlign=top;outlineConnect=0;align=center;shape=mxgraph.office.concepts.document;" parent="1" vertex="1">
          <mxGeometry x="450" y="710" width="40" height="47" as="geometry" />
        </mxCell>
        <mxCell id="t7h9JxyBUWeAw55wg_5o-20" value="Diagram" style="sketch=0;pointerEvents=1;shadow=0;dashed=0;html=1;strokeColor=none;fillColor=#505050;labelPosition=center;verticalLabelPosition=bottom;verticalAlign=top;outlineConnect=0;align=center;shape=mxgraph.office.concepts.document;" parent="1" vertex="1">
          <mxGeometry x="448.14" y="790" width="40" height="47" as="geometry" />
        </mxCell>
        <mxCell id="t7h9JxyBUWeAw55wg_5o-24" value="" style="shape=image;verticalLabelPosition=bottom;labelBackgroundColor=default;verticalAlign=top;aspect=fixed;imageAspect=0;image=https://upload.wikimedia.org/wikipedia/commons/thumb/8/86/Codesys_Logo.svg/1200px-Codesys_Logo.svg.png;" parent="1" vertex="1">
          <mxGeometry x="250" y="968" width="125" height="100" as="geometry" />
        </mxCell>
      </root>
    </mxGraphModel>
  </diagram>
  <diagram id="D5pLMNmzvhwVKb-bDGbO" name="Database Diagram">
    <mxGraphModel dx="1221" dy="664" grid="1" gridSize="10" guides="1" tooltips="1" connect="1" arrows="1" fold="1" page="1" pageScale="1" pageWidth="827" pageHeight="1169" math="0" shadow="0">
      <root>
        <mxCell id="0" />
        <mxCell id="1" parent="0" />
        <mxCell id="lfdxlBJ5FT_SrlpED5s9-36" value="Orders" style="swimlane;fontStyle=1;childLayout=stackLayout;horizontal=1;startSize=26;horizontalStack=0;resizeParent=1;resizeParentMax=0;resizeLast=0;collapsible=1;marginBottom=0;align=center;fontSize=14;" parent="1" vertex="1">
          <mxGeometry x="120" y="90" width="160" height="296" as="geometry" />
        </mxCell>
        <mxCell id="lfdxlBJ5FT_SrlpED5s9-37" value="[PK] Number" style="text;strokeColor=none;fillColor=none;spacingLeft=4;spacingRight=4;overflow=hidden;rotatable=0;points=[[0,0.5],[1,0.5]];portConstraint=eastwest;fontSize=12;whiteSpace=wrap;html=1;" parent="lfdxlBJ5FT_SrlpED5s9-36" vertex="1">
          <mxGeometry y="26" width="160" height="30" as="geometry" />
        </mxCell>
        <mxCell id="lfdxlBJ5FT_SrlpED5s9-56" value="" style="line;strokeWidth=1;rotatable=0;dashed=0;labelPosition=right;align=left;verticalAlign=middle;spacingTop=0;spacingLeft=6;points=[];portConstraint=eastwest;" parent="lfdxlBJ5FT_SrlpED5s9-36" vertex="1">
          <mxGeometry y="56" width="160" height="10" as="geometry" />
        </mxCell>
        <mxCell id="lfdxlBJ5FT_SrlpED5s9-38" value="Workpiece" style="text;strokeColor=none;fillColor=none;spacingLeft=4;spacingRight=4;overflow=hidden;rotatable=0;points=[[0,0.5],[1,0.5]];portConstraint=eastwest;fontSize=12;whiteSpace=wrap;html=1;" parent="lfdxlBJ5FT_SrlpED5s9-36" vertex="1">
          <mxGeometry y="66" width="160" height="30" as="geometry" />
        </mxCell>
        <mxCell id="lfdxlBJ5FT_SrlpED5s9-55" value="" style="line;strokeWidth=1;rotatable=0;dashed=0;labelPosition=right;align=left;verticalAlign=middle;spacingTop=0;spacingLeft=6;points=[];portConstraint=eastwest;" parent="lfdxlBJ5FT_SrlpED5s9-36" vertex="1">
          <mxGeometry y="96" width="160" height="10" as="geometry" />
        </mxCell>
        <mxCell id="lfdxlBJ5FT_SrlpED5s9-39" value="Quantity" style="text;strokeColor=none;fillColor=none;spacingLeft=4;spacingRight=4;overflow=hidden;rotatable=0;points=[[0,0.5],[1,0.5]];portConstraint=eastwest;fontSize=12;whiteSpace=wrap;html=1;" parent="lfdxlBJ5FT_SrlpED5s9-36" vertex="1">
          <mxGeometry y="106" width="160" height="30" as="geometry" />
        </mxCell>
        <mxCell id="lfdxlBJ5FT_SrlpED5s9-57" value="" style="line;strokeWidth=1;rotatable=0;dashed=0;labelPosition=right;align=left;verticalAlign=middle;spacingTop=0;spacingLeft=6;points=[];portConstraint=eastwest;" parent="lfdxlBJ5FT_SrlpED5s9-36" vertex="1">
          <mxGeometry y="136" width="160" height="10" as="geometry" />
        </mxCell>
        <mxCell id="lfdxlBJ5FT_SrlpED5s9-42" value="DueDate" style="text;strokeColor=none;fillColor=none;spacingLeft=4;spacingRight=4;overflow=hidden;rotatable=0;points=[[0,0.5],[1,0.5]];portConstraint=eastwest;fontSize=12;whiteSpace=wrap;html=1;" parent="lfdxlBJ5FT_SrlpED5s9-36" vertex="1">
          <mxGeometry y="146" width="160" height="30" as="geometry" />
        </mxCell>
        <mxCell id="lfdxlBJ5FT_SrlpED5s9-58" value="" style="line;strokeWidth=1;rotatable=0;dashed=0;labelPosition=right;align=left;verticalAlign=middle;spacingTop=0;spacingLeft=6;points=[];portConstraint=eastwest;" parent="lfdxlBJ5FT_SrlpED5s9-36" vertex="1">
          <mxGeometry y="176" width="160" height="10" as="geometry" />
        </mxCell>
        <mxCell id="lfdxlBJ5FT_SrlpED5s9-43" value="LatePen" style="text;strokeColor=none;fillColor=none;spacingLeft=4;spacingRight=4;overflow=hidden;rotatable=0;points=[[0,0.5],[1,0.5]];portConstraint=eastwest;fontSize=12;whiteSpace=wrap;html=1;" parent="lfdxlBJ5FT_SrlpED5s9-36" vertex="1">
          <mxGeometry y="186" width="160" height="30" as="geometry" />
        </mxCell>
        <mxCell id="lfdxlBJ5FT_SrlpED5s9-59" value="" style="line;strokeWidth=1;rotatable=0;dashed=0;labelPosition=right;align=left;verticalAlign=middle;spacingTop=0;spacingLeft=6;points=[];portConstraint=eastwest;" parent="lfdxlBJ5FT_SrlpED5s9-36" vertex="1">
          <mxGeometry y="216" width="160" height="10" as="geometry" />
        </mxCell>
        <mxCell id="lfdxlBJ5FT_SrlpED5s9-44" value="EarlyPen" style="text;strokeColor=none;fillColor=none;spacingLeft=4;spacingRight=4;overflow=hidden;rotatable=0;points=[[0,0.5],[1,0.5]];portConstraint=eastwest;fontSize=12;whiteSpace=wrap;html=1;" parent="lfdxlBJ5FT_SrlpED5s9-36" vertex="1">
          <mxGeometry y="226" width="160" height="30" as="geometry" />
        </mxCell>
        <mxCell id="lfdxlBJ5FT_SrlpED5s9-60" value="" style="line;strokeWidth=1;rotatable=0;dashed=0;labelPosition=right;align=left;verticalAlign=middle;spacingTop=0;spacingLeft=6;points=[];portConstraint=eastwest;" parent="lfdxlBJ5FT_SrlpED5s9-36" vertex="1">
          <mxGeometry y="256" width="160" height="10" as="geometry" />
        </mxCell>
        <mxCell id="lfdxlBJ5FT_SrlpED5s9-45" value="ClientID" style="text;strokeColor=none;fillColor=none;spacingLeft=4;spacingRight=4;overflow=hidden;rotatable=0;points=[[0,0.5],[1,0.5]];portConstraint=eastwest;fontSize=12;whiteSpace=wrap;html=1;" parent="lfdxlBJ5FT_SrlpED5s9-36" vertex="1">
          <mxGeometry y="266" width="160" height="30" as="geometry" />
        </mxCell>
        <mxCell id="lfdxlBJ5FT_SrlpED5s9-46" value="Clients" style="swimlane;fontStyle=1;childLayout=stackLayout;horizontal=1;startSize=26;horizontalStack=0;resizeParent=1;resizeParentMax=0;resizeLast=0;collapsible=1;marginBottom=0;align=center;fontSize=14;" parent="1" vertex="1">
          <mxGeometry x="420" y="330" width="160" height="96" as="geometry" />
        </mxCell>
        <mxCell id="lfdxlBJ5FT_SrlpED5s9-47" value="[PK] ClientID" style="text;strokeColor=none;fillColor=none;spacingLeft=4;spacingRight=4;overflow=hidden;rotatable=0;points=[[0,0.5],[1,0.5]];portConstraint=eastwest;fontSize=12;whiteSpace=wrap;html=1;" parent="lfdxlBJ5FT_SrlpED5s9-46" vertex="1">
          <mxGeometry y="26" width="160" height="30" as="geometry" />
        </mxCell>
        <mxCell id="lfdxlBJ5FT_SrlpED5s9-64" value="" style="line;strokeWidth=1;rotatable=0;dashed=0;labelPosition=right;align=left;verticalAlign=middle;spacingTop=0;spacingLeft=6;points=[];portConstraint=eastwest;" parent="lfdxlBJ5FT_SrlpED5s9-46" vertex="1">
          <mxGeometry y="56" width="160" height="10" as="geometry" />
        </mxCell>
        <mxCell id="lfdxlBJ5FT_SrlpED5s9-48" value="Name" style="text;strokeColor=none;fillColor=none;spacingLeft=4;spacingRight=4;overflow=hidden;rotatable=0;points=[[0,0.5],[1,0.5]];portConstraint=eastwest;fontSize=12;whiteSpace=wrap;html=1;" parent="lfdxlBJ5FT_SrlpED5s9-46" vertex="1">
          <mxGeometry y="66" width="160" height="30" as="geometry" />
        </mxCell>
        <mxCell id="lfdxlBJ5FT_SrlpED5s9-50" value="Schedule" style="swimlane;fontStyle=1;childLayout=stackLayout;horizontal=1;startSize=26;horizontalStack=0;resizeParent=1;resizeParentMax=0;resizeLast=0;collapsible=1;marginBottom=0;align=center;fontSize=14;" parent="1" vertex="1">
          <mxGeometry x="120" y="450" width="160" height="176" as="geometry" />
        </mxCell>
        <mxCell id="lfdxlBJ5FT_SrlpED5s9-51" value="[PK] Day" style="text;strokeColor=none;fillColor=none;spacingLeft=4;spacingRight=4;overflow=hidden;rotatable=0;points=[[0,0.5],[1,0.5]];portConstraint=eastwest;fontSize=12;whiteSpace=wrap;html=1;" parent="lfdxlBJ5FT_SrlpED5s9-50" vertex="1">
          <mxGeometry y="26" width="160" height="30" as="geometry" />
        </mxCell>
        <mxCell id="lfdxlBJ5FT_SrlpED5s9-61" value="" style="line;strokeWidth=1;rotatable=0;dashed=0;labelPosition=right;align=left;verticalAlign=middle;spacingTop=0;spacingLeft=6;points=[];portConstraint=eastwest;" parent="lfdxlBJ5FT_SrlpED5s9-50" vertex="1">
          <mxGeometry y="56" width="160" height="10" as="geometry" />
        </mxCell>
        <mxCell id="lfdxlBJ5FT_SrlpED5s9-52" value="Pieces" style="text;strokeColor=none;fillColor=none;spacingLeft=4;spacingRight=4;overflow=hidden;rotatable=0;points=[[0,0.5],[1,0.5]];portConstraint=eastwest;fontSize=12;whiteSpace=wrap;html=1;" parent="lfdxlBJ5FT_SrlpED5s9-50" vertex="1">
          <mxGeometry y="66" width="160" height="30" as="geometry" />
        </mxCell>
        <mxCell id="lfdxlBJ5FT_SrlpED5s9-62" value="" style="line;strokeWidth=1;rotatable=0;dashed=0;labelPosition=right;align=left;verticalAlign=middle;spacingTop=0;spacingLeft=6;points=[];portConstraint=eastwest;" parent="lfdxlBJ5FT_SrlpED5s9-50" vertex="1">
          <mxGeometry y="96" width="160" height="10" as="geometry" />
        </mxCell>
        <mxCell id="lfdxlBJ5FT_SrlpED5s9-53" value="Purchases" style="text;strokeColor=none;fillColor=none;spacingLeft=4;spacingRight=4;overflow=hidden;rotatable=0;points=[[0,0.5],[1,0.5]];portConstraint=eastwest;fontSize=12;whiteSpace=wrap;html=1;" parent="lfdxlBJ5FT_SrlpED5s9-50" vertex="1">
          <mxGeometry y="106" width="160" height="30" as="geometry" />
        </mxCell>
        <mxCell id="lfdxlBJ5FT_SrlpED5s9-63" value="" style="line;strokeWidth=1;rotatable=0;dashed=0;labelPosition=right;align=left;verticalAlign=middle;spacingTop=0;spacingLeft=6;points=[];portConstraint=eastwest;" parent="lfdxlBJ5FT_SrlpED5s9-50" vertex="1">
          <mxGeometry y="136" width="160" height="10" as="geometry" />
        </mxCell>
        <mxCell id="lfdxlBJ5FT_SrlpED5s9-54" value="Discharges" style="text;strokeColor=none;fillColor=none;spacingLeft=4;spacingRight=4;overflow=hidden;rotatable=0;points=[[0,0.5],[1,0.5]];portConstraint=eastwest;fontSize=12;whiteSpace=wrap;html=1;" parent="lfdxlBJ5FT_SrlpED5s9-50" vertex="1">
          <mxGeometry y="146" width="160" height="30" as="geometry" />
        </mxCell>
        <mxCell id="lfdxlBJ5FT_SrlpED5s9-66" style="edgeStyle=orthogonalEdgeStyle;rounded=0;orthogonalLoop=1;jettySize=auto;html=1;entryX=0;entryY=0.5;entryDx=0;entryDy=0;" parent="1" source="lfdxlBJ5FT_SrlpED5s9-45" target="lfdxlBJ5FT_SrlpED5s9-47" edge="1">
          <mxGeometry relative="1" as="geometry" />
        </mxCell>
        <mxCell id="--ULudlCtDCyb4UFi01m-1" value="Purchase List" style="swimlane;fontStyle=1;childLayout=stackLayout;horizontal=1;startSize=26;horizontalStack=0;resizeParent=1;resizeParentMax=0;resizeLast=0;collapsible=1;marginBottom=0;align=center;fontSize=14;" parent="1" vertex="1">
          <mxGeometry x="330" y="490" width="160" height="136" as="geometry" />
        </mxCell>
        <mxCell id="--ULudlCtDCyb4UFi01m-4" value="Workpiece" style="text;strokeColor=none;fillColor=none;spacingLeft=4;spacingRight=4;overflow=hidden;rotatable=0;points=[[0,0.5],[1,0.5]];portConstraint=eastwest;fontSize=12;whiteSpace=wrap;html=1;" parent="--ULudlCtDCyb4UFi01m-1" vertex="1">
          <mxGeometry y="26" width="160" height="30" as="geometry" />
        </mxCell>
        <mxCell id="--ULudlCtDCyb4UFi01m-5" value="" style="line;strokeWidth=1;rotatable=0;dashed=0;labelPosition=right;align=left;verticalAlign=middle;spacingTop=0;spacingLeft=6;points=[];portConstraint=eastwest;" parent="--ULudlCtDCyb4UFi01m-1" vertex="1">
          <mxGeometry y="56" width="160" height="10" as="geometry" />
        </mxCell>
        <mxCell id="--ULudlCtDCyb4UFi01m-6" value="Quantity" style="text;strokeColor=none;fillColor=none;spacingLeft=4;spacingRight=4;overflow=hidden;rotatable=0;points=[[0,0.5],[1,0.5]];portConstraint=eastwest;fontSize=12;whiteSpace=wrap;html=1;" parent="--ULudlCtDCyb4UFi01m-1" vertex="1">
          <mxGeometry y="66" width="160" height="30" as="geometry" />
        </mxCell>
        <mxCell id="--ULudlCtDCyb4UFi01m-7" value="" style="line;strokeWidth=1;rotatable=0;dashed=0;labelPosition=right;align=left;verticalAlign=middle;spacingTop=0;spacingLeft=6;points=[];portConstraint=eastwest;" parent="--ULudlCtDCyb4UFi01m-1" vertex="1">
          <mxGeometry y="96" width="160" height="10" as="geometry" />
        </mxCell>
        <mxCell id="--ULudlCtDCyb4UFi01m-8" value="Priotity" style="text;strokeColor=none;fillColor=none;spacingLeft=4;spacingRight=4;overflow=hidden;rotatable=0;points=[[0,0.5],[1,0.5]];portConstraint=eastwest;fontSize=12;whiteSpace=wrap;html=1;" parent="--ULudlCtDCyb4UFi01m-1" vertex="1">
          <mxGeometry y="106" width="160" height="30" as="geometry" />
        </mxCell>
        <mxCell id="N2NxxSRrt6N11kpNzsSw-1" value="Pending" style="swimlane;fontStyle=1;childLayout=stackLayout;horizontal=1;startSize=26;horizontalStack=0;resizeParent=1;resizeParentMax=0;resizeLast=0;collapsible=1;marginBottom=0;align=center;fontSize=14;" parent="1" vertex="1">
          <mxGeometry x="414" y="30" width="160" height="56" as="geometry" />
        </mxCell>
        <mxCell id="N2NxxSRrt6N11kpNzsSw-2" value="[PK] Order Number" style="text;strokeColor=none;fillColor=none;spacingLeft=4;spacingRight=4;overflow=hidden;rotatable=0;points=[[0,0.5],[1,0.5]];portConstraint=eastwest;fontSize=12;whiteSpace=wrap;html=1;" parent="N2NxxSRrt6N11kpNzsSw-1" vertex="1">
          <mxGeometry y="26" width="160" height="30" as="geometry" />
        </mxCell>
        <mxCell id="d-JXUMR0xdZDP2DdXLYk-1" value="Concluded" style="swimlane;fontStyle=1;childLayout=stackLayout;horizontal=1;startSize=26;horizontalStack=0;resizeParent=1;resizeParentMax=0;resizeLast=0;collapsible=1;marginBottom=0;align=center;fontSize=14;" parent="1" vertex="1">
          <mxGeometry x="414" y="90" width="160" height="56" as="geometry" />
        </mxCell>
        <mxCell id="d-JXUMR0xdZDP2DdXLYk-2" value="[PK] Order Number" style="text;strokeColor=none;fillColor=none;spacingLeft=4;spacingRight=4;overflow=hidden;rotatable=0;points=[[0,0.5],[1,0.5]];portConstraint=eastwest;fontSize=12;whiteSpace=wrap;html=1;" parent="d-JXUMR0xdZDP2DdXLYk-1" vertex="1">
          <mxGeometry y="26" width="160" height="30" as="geometry" />
        </mxCell>
        <mxCell id="d-JXUMR0xdZDP2DdXLYk-7" style="edgeStyle=orthogonalEdgeStyle;rounded=0;orthogonalLoop=1;jettySize=auto;html=1;entryX=0;entryY=0.5;entryDx=0;entryDy=0;" parent="1" source="lfdxlBJ5FT_SrlpED5s9-37" target="N2NxxSRrt6N11kpNzsSw-2" edge="1">
          <mxGeometry relative="1" as="geometry">
            <Array as="points">
              <mxPoint x="320" y="131" />
              <mxPoint x="320" y="70" />
            </Array>
          </mxGeometry>
        </mxCell>
        <mxCell id="d-JXUMR0xdZDP2DdXLYk-8" style="edgeStyle=orthogonalEdgeStyle;rounded=0;orthogonalLoop=1;jettySize=auto;html=1;" parent="1" source="lfdxlBJ5FT_SrlpED5s9-37" target="d-JXUMR0xdZDP2DdXLYk-2" edge="1">
          <mxGeometry relative="1" as="geometry" />
        </mxCell>
        <mxCell id="d-JXUMR0xdZDP2DdXLYk-9" value="Warehouse" style="swimlane;fontStyle=1;childLayout=stackLayout;horizontal=1;startSize=26;horizontalStack=0;resizeParent=1;resizeParentMax=0;resizeLast=0;collapsible=1;marginBottom=0;align=center;fontSize=14;" parent="1" vertex="1">
          <mxGeometry x="510" y="489" width="160" height="96" as="geometry" />
        </mxCell>
        <mxCell id="d-JXUMR0xdZDP2DdXLYk-10" value="Workpiece" style="text;strokeColor=none;fillColor=none;spacingLeft=4;spacingRight=4;overflow=hidden;rotatable=0;points=[[0,0.5],[1,0.5]];portConstraint=eastwest;fontSize=12;whiteSpace=wrap;html=1;" parent="d-JXUMR0xdZDP2DdXLYk-9" vertex="1">
          <mxGeometry y="26" width="160" height="30" as="geometry" />
        </mxCell>
        <mxCell id="d-JXUMR0xdZDP2DdXLYk-11" value="" style="line;strokeWidth=1;rotatable=0;dashed=0;labelPosition=right;align=left;verticalAlign=middle;spacingTop=0;spacingLeft=6;points=[];portConstraint=eastwest;" parent="d-JXUMR0xdZDP2DdXLYk-9" vertex="1">
          <mxGeometry y="56" width="160" height="10" as="geometry" />
        </mxCell>
        <mxCell id="d-JXUMR0xdZDP2DdXLYk-12" value="Quantity" style="text;strokeColor=none;fillColor=none;spacingLeft=4;spacingRight=4;overflow=hidden;rotatable=0;points=[[0,0.5],[1,0.5]];portConstraint=eastwest;fontSize=12;whiteSpace=wrap;html=1;" parent="d-JXUMR0xdZDP2DdXLYk-9" vertex="1">
          <mxGeometry y="66" width="160" height="30" as="geometry" />
        </mxCell>
        <mxCell id="grqcimScHw_3sPO51T3f-1" value="Process Time" style="swimlane;fontStyle=1;childLayout=stackLayout;horizontal=1;startSize=26;horizontalStack=0;resizeParent=1;resizeParentMax=0;resizeLast=0;collapsible=1;marginBottom=0;align=center;fontSize=14;" parent="1" vertex="1">
          <mxGeometry x="510" y="610" width="160" height="96" as="geometry" />
        </mxCell>
        <mxCell id="grqcimScHw_3sPO51T3f-2" value="Workpiece" style="text;strokeColor=none;fillColor=none;spacingLeft=4;spacingRight=4;overflow=hidden;rotatable=0;points=[[0,0.5],[1,0.5]];portConstraint=eastwest;fontSize=12;whiteSpace=wrap;html=1;" parent="grqcimScHw_3sPO51T3f-1" vertex="1">
          <mxGeometry y="26" width="160" height="30" as="geometry" />
        </mxCell>
        <mxCell id="grqcimScHw_3sPO51T3f-3" value="" style="line;strokeWidth=1;rotatable=0;dashed=0;labelPosition=right;align=left;verticalAlign=middle;spacingTop=0;spacingLeft=6;points=[];portConstraint=eastwest;" parent="grqcimScHw_3sPO51T3f-1" vertex="1">
          <mxGeometry y="56" width="160" height="10" as="geometry" />
        </mxCell>
        <mxCell id="grqcimScHw_3sPO51T3f-4" value="Time" style="text;strokeColor=none;fillColor=none;spacingLeft=4;spacingRight=4;overflow=hidden;rotatable=0;points=[[0,0.5],[1,0.5]];portConstraint=eastwest;fontSize=12;whiteSpace=wrap;html=1;" parent="grqcimScHw_3sPO51T3f-1" vertex="1">
          <mxGeometry y="66" width="160" height="30" as="geometry" />
        </mxCell>
      </root>
    </mxGraphModel>
  </diagram>
  <diagram id="-iqzpn4qIFk-2uOmD40Z" name="ERP-UML">
    <mxGraphModel dx="1160" dy="720" grid="1" gridSize="10" guides="1" tooltips="1" connect="1" arrows="1" fold="1" page="1" pageScale="1" pageWidth="827" pageHeight="1169" math="0" shadow="0">
      <root>
        <mxCell id="0" />
        <mxCell id="1" parent="0" />
        <mxCell id="79Nr0-UApNbCWjb3ISjr-1" value="Client Orders" style="shape=umlActor;verticalLabelPosition=bottom;verticalAlign=top;html=1;" parent="1" vertex="1">
          <mxGeometry x="40" y="60" width="30" height="60" as="geometry" />
        </mxCell>
        <mxCell id="kdny9Fqz6i3lUQGgANCb-1" value="Orders" style="swimlane;fontStyle=0;childLayout=stackLayout;horizontal=1;startSize=26;fillColor=none;horizontalStack=0;resizeParent=1;resizeParentMax=0;resizeLast=0;collapsible=1;marginBottom=0;whiteSpace=wrap;html=1;" parent="1" vertex="1">
          <mxGeometry x="150" y="130" width="140" height="104" as="geometry" />
        </mxCell>
        <mxCell id="kdny9Fqz6i3lUQGgANCb-2" value="+ field: type" style="text;strokeColor=none;fillColor=none;align=left;verticalAlign=top;spacingLeft=4;spacingRight=4;overflow=hidden;rotatable=0;points=[[0,0.5],[1,0.5]];portConstraint=eastwest;whiteSpace=wrap;html=1;" parent="kdny9Fqz6i3lUQGgANCb-1" vertex="1">
          <mxGeometry y="26" width="140" height="26" as="geometry" />
        </mxCell>
        <mxCell id="kdny9Fqz6i3lUQGgANCb-3" value="+ field: type" style="text;strokeColor=none;fillColor=none;align=left;verticalAlign=top;spacingLeft=4;spacingRight=4;overflow=hidden;rotatable=0;points=[[0,0.5],[1,0.5]];portConstraint=eastwest;whiteSpace=wrap;html=1;" parent="kdny9Fqz6i3lUQGgANCb-1" vertex="1">
          <mxGeometry y="52" width="140" height="26" as="geometry" />
        </mxCell>
        <mxCell id="kdny9Fqz6i3lUQGgANCb-4" value="+ field: type" style="text;strokeColor=none;fillColor=none;align=left;verticalAlign=top;spacingLeft=4;spacingRight=4;overflow=hidden;rotatable=0;points=[[0,0.5],[1,0.5]];portConstraint=eastwest;whiteSpace=wrap;html=1;" parent="kdny9Fqz6i3lUQGgANCb-1" vertex="1">
          <mxGeometry y="78" width="140" height="26" as="geometry" />
        </mxCell>
        <mxCell id="kdny9Fqz6i3lUQGgANCb-9" value="Mps" style="swimlane;fontStyle=0;childLayout=stackLayout;horizontal=1;startSize=26;fillColor=none;horizontalStack=0;resizeParent=1;resizeParentMax=0;resizeLast=0;collapsible=1;marginBottom=0;whiteSpace=wrap;html=1;" parent="1" vertex="1">
          <mxGeometry x="610" y="350" width="140" height="104" as="geometry" />
        </mxCell>
        <mxCell id="kdny9Fqz6i3lUQGgANCb-10" value="+ field: type" style="text;strokeColor=none;fillColor=none;align=left;verticalAlign=top;spacingLeft=4;spacingRight=4;overflow=hidden;rotatable=0;points=[[0,0.5],[1,0.5]];portConstraint=eastwest;whiteSpace=wrap;html=1;" parent="kdny9Fqz6i3lUQGgANCb-9" vertex="1">
          <mxGeometry y="26" width="140" height="26" as="geometry" />
        </mxCell>
        <mxCell id="kdny9Fqz6i3lUQGgANCb-11" value="+ field: type" style="text;strokeColor=none;fillColor=none;align=left;verticalAlign=top;spacingLeft=4;spacingRight=4;overflow=hidden;rotatable=0;points=[[0,0.5],[1,0.5]];portConstraint=eastwest;whiteSpace=wrap;html=1;" parent="kdny9Fqz6i3lUQGgANCb-9" vertex="1">
          <mxGeometry y="52" width="140" height="26" as="geometry" />
        </mxCell>
        <mxCell id="kdny9Fqz6i3lUQGgANCb-12" value="+ field: type" style="text;strokeColor=none;fillColor=none;align=left;verticalAlign=top;spacingLeft=4;spacingRight=4;overflow=hidden;rotatable=0;points=[[0,0.5],[1,0.5]];portConstraint=eastwest;whiteSpace=wrap;html=1;" parent="kdny9Fqz6i3lUQGgANCb-9" vertex="1">
          <mxGeometry y="78" width="140" height="26" as="geometry" />
        </mxCell>
        <mxCell id="kdny9Fqz6i3lUQGgANCb-13" value="Terminal" style="swimlane;fontStyle=0;childLayout=stackLayout;horizontal=1;startSize=26;fillColor=none;horizontalStack=0;resizeParent=1;resizeParentMax=0;resizeLast=0;collapsible=1;marginBottom=0;whiteSpace=wrap;html=1;" parent="1" vertex="1">
          <mxGeometry x="340" y="230" width="170" height="104" as="geometry" />
        </mxCell>
        <mxCell id="kdny9Fqz6i3lUQGgANCb-14" value="+ method: start()" style="text;strokeColor=none;fillColor=none;align=left;verticalAlign=top;spacingLeft=4;spacingRight=4;overflow=hidden;rotatable=0;points=[[0,0.5],[1,0.5]];portConstraint=eastwest;whiteSpace=wrap;html=1;" parent="kdny9Fqz6i3lUQGgANCb-13" vertex="1">
          <mxGeometry y="26" width="170" height="26" as="geometry" />
        </mxCell>
        <mxCell id="kdny9Fqz6i3lUQGgANCb-15" value="+ method: update()" style="text;strokeColor=none;fillColor=none;align=left;verticalAlign=top;spacingLeft=4;spacingRight=4;overflow=hidden;rotatable=0;points=[[0,0.5],[1,0.5]];portConstraint=eastwest;whiteSpace=wrap;html=1;" parent="kdny9Fqz6i3lUQGgANCb-13" vertex="1">
          <mxGeometry y="52" width="170" height="26" as="geometry" />
        </mxCell>
        <mxCell id="kdny9Fqz6i3lUQGgANCb-16" value="+ field: type" style="text;strokeColor=none;fillColor=none;align=left;verticalAlign=top;spacingLeft=4;spacingRight=4;overflow=hidden;rotatable=0;points=[[0,0.5],[1,0.5]];portConstraint=eastwest;whiteSpace=wrap;html=1;" parent="kdny9Fqz6i3lUQGgANCb-13" vertex="1">
          <mxGeometry y="78" width="170" height="26" as="geometry" />
        </mxCell>
        <mxCell id="kdny9Fqz6i3lUQGgANCb-17" value="&lt;p style=&quot;margin:0px;margin-top:4px;text-align:center;text-decoration:underline;&quot;&gt;&lt;b&gt;day_orders: UdpComm&lt;/b&gt;&lt;/p&gt;&lt;hr&gt;&lt;p style=&quot;margin:0px;margin-left:8px;&quot;&gt;orders = current day orders&lt;br&gt;&lt;/p&gt;" style="verticalAlign=top;align=left;overflow=fill;fontSize=12;fontFamily=Helvetica;html=1;whiteSpace=wrap;" parent="1" vertex="1">
          <mxGeometry x="30" y="350" width="160" height="60" as="geometry" />
        </mxCell>
        <mxCell id="kdny9Fqz6i3lUQGgANCb-18" value="&lt;p style=&quot;margin:0px;margin-top:4px;text-align:center;text-decoration:underline;&quot;&gt;&lt;b&gt;ui:Terminal&lt;/b&gt;&lt;/p&gt;&lt;hr&gt;&lt;p style=&quot;margin:0px;margin-left:8px;&quot;&gt;field1 = value1&lt;br&gt;field2 = value2&lt;br&gt;field3 = value3&lt;/p&gt;" style="verticalAlign=top;align=left;overflow=fill;fontSize=12;fontFamily=Helvetica;html=1;whiteSpace=wrap;" parent="1" vertex="1">
          <mxGeometry x="140" y="470" width="160" height="90" as="geometry" />
        </mxCell>
        <mxCell id="kdny9Fqz6i3lUQGgANCb-19" value="&lt;p style=&quot;margin: 4px 0px 0px; text-align: center;&quot;&gt;&lt;b&gt;&lt;u&gt;Scheduler: Mps&lt;/u&gt;&lt;/b&gt;&lt;br&gt;&lt;/p&gt;&lt;hr&gt;&lt;p style=&quot;margin:0px;margin-left:8px;&quot;&gt;field1 = value1&lt;br&gt;field2 = value2&lt;br&gt;field3 = value3&lt;/p&gt;" style="verticalAlign=top;align=left;overflow=fill;fontSize=12;fontFamily=Helvetica;html=1;whiteSpace=wrap;" parent="1" vertex="1">
          <mxGeometry x="220" y="350" width="160" height="90" as="geometry" />
        </mxCell>
        <mxCell id="kdny9Fqz6i3lUQGgANCb-25" value="" style="group" parent="1" vertex="1" connectable="0">
          <mxGeometry x="340" y="50" width="246" height="156" as="geometry" />
        </mxCell>
        <mxCell id="kdny9Fqz6i3lUQGgANCb-5" value="UdpComm" style="swimlane;fontStyle=0;childLayout=stackLayout;horizontal=1;startSize=26;fillColor=none;horizontalStack=0;resizeParent=1;resizeParentMax=0;resizeLast=0;collapsible=1;marginBottom=0;whiteSpace=wrap;html=1;" parent="kdny9Fqz6i3lUQGgANCb-25" vertex="1">
          <mxGeometry width="170" height="164" as="geometry" />
        </mxCell>
        <mxCell id="kdny9Fqz6i3lUQGgANCb-22" value="- variable: ip" style="text;strokeColor=none;fillColor=none;align=left;verticalAlign=top;spacingLeft=4;spacingRight=4;overflow=hidden;rotatable=0;points=[[0,0.5],[1,0.5]];portConstraint=eastwest;whiteSpace=wrap;html=1;" parent="kdny9Fqz6i3lUQGgANCb-5" vertex="1">
          <mxGeometry y="26" width="170" height="26" as="geometry" />
        </mxCell>
        <mxCell id="kdny9Fqz6i3lUQGgANCb-23" value="- variable: port" style="text;strokeColor=none;fillColor=none;align=left;verticalAlign=top;spacingLeft=4;spacingRight=4;overflow=hidden;rotatable=0;points=[[0,0.5],[1,0.5]];portConstraint=eastwest;whiteSpace=wrap;html=1;" parent="kdny9Fqz6i3lUQGgANCb-5" vertex="1">
          <mxGeometry y="52" width="170" height="26" as="geometry" />
        </mxCell>
        <mxCell id="kdny9Fqz6i3lUQGgANCb-26" value="" style="line;strokeWidth=1;fillColor=none;align=left;verticalAlign=middle;spacingTop=-1;spacingLeft=3;spacingRight=3;rotatable=0;labelPosition=right;points=[];portConstraint=eastwest;strokeColor=inherit;" parent="kdny9Fqz6i3lUQGgANCb-5" vertex="1">
          <mxGeometry y="78" width="170" height="8" as="geometry" />
        </mxCell>
        <mxCell id="kdny9Fqz6i3lUQGgANCb-20" value="+ method: getDayOrders()" style="text;strokeColor=none;fillColor=none;align=left;verticalAlign=top;spacingLeft=4;spacingRight=4;overflow=hidden;rotatable=0;points=[[0,0.5],[1,0.5]];portConstraint=eastwest;whiteSpace=wrap;html=1;" parent="kdny9Fqz6i3lUQGgANCb-5" vertex="1">
          <mxGeometry y="86" width="170" height="26" as="geometry" />
        </mxCell>
        <mxCell id="kdny9Fqz6i3lUQGgANCb-21" value="+ method: setIP(udp_ip)" style="text;strokeColor=none;fillColor=none;align=left;verticalAlign=top;spacingLeft=4;spacingRight=4;overflow=hidden;rotatable=0;points=[[0,0.5],[1,0.5]];portConstraint=eastwest;whiteSpace=wrap;html=1;" parent="kdny9Fqz6i3lUQGgANCb-5" vertex="1">
          <mxGeometry y="112" width="170" height="26" as="geometry" />
        </mxCell>
        <mxCell id="kdny9Fqz6i3lUQGgANCb-6" value="+ method: setPort(udp_port)" style="text;strokeColor=none;fillColor=none;align=left;verticalAlign=top;spacingLeft=4;spacingRight=4;overflow=hidden;rotatable=0;points=[[0,0.5],[1,0.5]];portConstraint=eastwest;whiteSpace=wrap;html=1;" parent="kdny9Fqz6i3lUQGgANCb-5" vertex="1">
          <mxGeometry y="138" width="170" height="26" as="geometry" />
        </mxCell>
        <mxCell id="kdny9Fqz6i3lUQGgANCb-24" value="xml.etree" style="shape=module;align=left;spacingLeft=20;align=center;verticalAlign=top;whiteSpace=wrap;html=1;" parent="kdny9Fqz6i3lUQGgANCb-25" vertex="1">
          <mxGeometry x="160" width="86" height="50" as="geometry" />
        </mxCell>
        <mxCell id="79Nr0-UApNbCWjb3ISjr-6" value="socket" style="shape=module;align=left;spacingLeft=20;align=center;verticalAlign=top;whiteSpace=wrap;html=1;" parent="kdny9Fqz6i3lUQGgANCb-25" vertex="1">
          <mxGeometry x="160" y="50" width="80" height="50" as="geometry" />
        </mxCell>
        <mxCell id="kdny9Fqz6i3lUQGgANCb-27" value="rich" style="shape=module;align=left;spacingLeft=20;align=center;verticalAlign=top;whiteSpace=wrap;html=1;" parent="1" vertex="1">
          <mxGeometry x="500" y="230" width="80" height="50" as="geometry" />
        </mxCell>
      </root>
    </mxGraphModel>
  </diagram>
  <diagram id="B-7kWTk0anH5xRMlQ0kK" name="MPS-UML">
    <mxGraphModel dx="1221" dy="664" grid="1" gridSize="10" guides="1" tooltips="1" connect="1" arrows="1" fold="1" page="1" pageScale="1" pageWidth="827" pageHeight="1169" math="0" shadow="0">
      <root>
        <mxCell id="0" />
        <mxCell id="1" parent="0" />
      </root>
    </mxGraphModel>
  </diagram>
  <diagram id="cdAEEDC-oOYnmQNNWew8" name="MES-UML">
    <mxGraphModel dx="1221" dy="664" grid="1" gridSize="10" guides="1" tooltips="1" connect="1" arrows="1" fold="1" page="1" pageScale="1" pageWidth="827" pageHeight="1169" math="0" shadow="0">
      <root>
        <mxCell id="0" />
        <mxCell id="1" parent="0" />
      </root>
    </mxGraphModel>
  </diagram>
  <diagram id="G-gpZDnkMSvJzGjctSG8" name="Plant">
    <mxGraphModel dx="1221" dy="664" grid="1" gridSize="10" guides="1" tooltips="1" connect="1" arrows="1" fold="1" page="1" pageScale="1" pageWidth="827" pageHeight="1169" math="0" shadow="0">
      <root>
        <mxCell id="0" />
        <mxCell id="1" parent="0" />
      </root>
    </mxGraphModel>
  </diagram>
  <diagram id="g0vtUxXMGvi-jn7niW7K" name="Database Classes">
    <mxGraphModel dx="2353" dy="830" grid="1" gridSize="10" guides="1" tooltips="1" connect="1" arrows="1" fold="1" page="1" pageScale="1" pageWidth="827" pageHeight="1169" math="0" shadow="0">
      <root>
        <mxCell id="0" />
        <mxCell id="1" parent="0" />
        <mxCell id="FJKOEfVYeCliXk1Lab6D-1" value="Database" style="swimlane;fontStyle=1;align=center;verticalAlign=top;childLayout=stackLayout;horizontal=1;startSize=26;horizontalStack=0;resizeParent=1;resizeParentMax=0;resizeLast=0;collapsible=1;marginBottom=0;whiteSpace=wrap;html=1;" parent="1" vertex="1">
          <mxGeometry x="250" y="150" width="340" height="420" as="geometry" />
        </mxCell>
        <mxCell id="FJKOEfVYeCliXk1Lab6D-2" value="- variable: dbname&amp;nbsp;" style="text;strokeColor=none;fillColor=none;align=left;verticalAlign=top;spacingLeft=4;spacingRight=4;overflow=hidden;rotatable=0;points=[[0,0.5],[1,0.5]];portConstraint=eastwest;whiteSpace=wrap;html=1;" parent="FJKOEfVYeCliXk1Lab6D-1" vertex="1">
          <mxGeometry y="26" width="340" height="26" as="geometry" />
        </mxCell>
        <mxCell id="FJKOEfVYeCliXk1Lab6D-3" value="- variable: user" style="text;strokeColor=none;fillColor=none;align=left;verticalAlign=top;spacingLeft=4;spacingRight=4;overflow=hidden;rotatable=0;points=[[0,0.5],[1,0.5]];portConstraint=eastwest;whiteSpace=wrap;html=1;" parent="FJKOEfVYeCliXk1Lab6D-1" vertex="1">
          <mxGeometry y="52" width="340" height="26" as="geometry" />
        </mxCell>
        <mxCell id="FJKOEfVYeCliXk1Lab6D-4" value="- variable: password" style="text;strokeColor=none;fillColor=none;align=left;verticalAlign=top;spacingLeft=4;spacingRight=4;overflow=hidden;rotatable=0;points=[[0,0.5],[1,0.5]];portConstraint=eastwest;whiteSpace=wrap;html=1;" parent="FJKOEfVYeCliXk1Lab6D-1" vertex="1">
          <mxGeometry y="78" width="340" height="26" as="geometry" />
        </mxCell>
        <mxCell id="FJKOEfVYeCliXk1Lab6D-5" value="- variable: host" style="text;strokeColor=none;fillColor=none;align=left;verticalAlign=top;spacingLeft=4;spacingRight=4;overflow=hidden;rotatable=0;points=[[0,0.5],[1,0.5]];portConstraint=eastwest;whiteSpace=wrap;html=1;" parent="FJKOEfVYeCliXk1Lab6D-1" vertex="1">
          <mxGeometry y="104" width="340" height="26" as="geometry" />
        </mxCell>
        <mxCell id="FJKOEfVYeCliXk1Lab6D-6" value="- variable: port" style="text;strokeColor=none;fillColor=none;align=left;verticalAlign=top;spacingLeft=4;spacingRight=4;overflow=hidden;rotatable=0;points=[[0,0.5],[1,0.5]];portConstraint=eastwest;whiteSpace=wrap;html=1;" parent="FJKOEfVYeCliXk1Lab6D-1" vertex="1">
          <mxGeometry y="130" width="340" height="26" as="geometry" />
        </mxCell>
        <mxCell id="FJKOEfVYeCliXk1Lab6D-7" value="- variable: conn" style="text;strokeColor=none;fillColor=none;align=left;verticalAlign=top;spacingLeft=4;spacingRight=4;overflow=hidden;rotatable=0;points=[[0,0.5],[1,0.5]];portConstraint=eastwest;whiteSpace=wrap;html=1;" parent="FJKOEfVYeCliXk1Lab6D-1" vertex="1">
          <mxGeometry y="156" width="340" height="24" as="geometry" />
        </mxCell>
        <mxCell id="dVCbiTrQHsEz04v3iH_W-1" value="- variable: cur" style="text;strokeColor=none;fillColor=none;align=left;verticalAlign=top;spacingLeft=4;spacingRight=4;overflow=hidden;rotatable=0;points=[[0,0.5],[1,0.5]];portConstraint=eastwest;whiteSpace=wrap;html=1;" parent="FJKOEfVYeCliXk1Lab6D-1" vertex="1">
          <mxGeometry y="180" width="340" height="24" as="geometry" />
        </mxCell>
        <mxCell id="FJKOEfVYeCliXk1Lab6D-8" value="" style="line;strokeWidth=1;fillColor=none;align=left;verticalAlign=middle;spacingTop=-1;spacingLeft=3;spacingRight=3;rotatable=0;labelPosition=right;points=[];portConstraint=eastwest;strokeColor=inherit;" parent="FJKOEfVYeCliXk1Lab6D-1" vertex="1">
          <mxGeometry y="204" width="340" height="8" as="geometry" />
        </mxCell>
        <mxCell id="FJKOEfVYeCliXk1Lab6D-9" value="+ method: create_Table(table_name,columns)" style="text;strokeColor=none;fillColor=none;align=left;verticalAlign=top;spacingLeft=4;spacingRight=4;overflow=hidden;rotatable=0;points=[[0,0.5],[1,0.5]];portConstraint=eastwest;whiteSpace=wrap;html=1;" parent="FJKOEfVYeCliXk1Lab6D-1" vertex="1">
          <mxGeometry y="212" width="340" height="26" as="geometry" />
        </mxCell>
        <mxCell id="dVCbiTrQHsEz04v3iH_W-15" value="+ method: delete_Table(table_name)" style="text;strokeColor=none;fillColor=none;align=left;verticalAlign=top;spacingLeft=4;spacingRight=4;overflow=hidden;rotatable=0;points=[[0,0.5],[1,0.5]];portConstraint=eastwest;whiteSpace=wrap;html=1;" parent="FJKOEfVYeCliXk1Lab6D-1" vertex="1">
          <mxGeometry y="238" width="340" height="26" as="geometry" />
        </mxCell>
        <mxCell id="dVCbiTrQHsEz04v3iH_W-2" value="+ method: close()" style="text;strokeColor=none;fillColor=none;align=left;verticalAlign=top;spacingLeft=4;spacingRight=4;overflow=hidden;rotatable=0;points=[[0,0.5],[1,0.5]];portConstraint=eastwest;whiteSpace=wrap;html=1;" parent="FJKOEfVYeCliXk1Lab6D-1" vertex="1">
          <mxGeometry y="264" width="340" height="26" as="geometry" />
        </mxCell>
        <mxCell id="dVCbiTrQHsEz04v3iH_W-16" value="+ method: insert_Row(table_name,values)" style="text;strokeColor=none;fillColor=none;align=left;verticalAlign=top;spacingLeft=4;spacingRight=4;overflow=hidden;rotatable=0;points=[[0,0.5],[1,0.5]];portConstraint=eastwest;whiteSpace=wrap;html=1;" parent="FJKOEfVYeCliXk1Lab6D-1" vertex="1">
          <mxGeometry y="290" width="340" height="26" as="geometry" />
        </mxCell>
        <mxCell id="dVCbiTrQHsEz04v3iH_W-17" value="+ method: delete_Row(table_name,condition)" style="text;strokeColor=none;fillColor=none;align=left;verticalAlign=top;spacingLeft=4;spacingRight=4;overflow=hidden;rotatable=0;points=[[0,0.5],[1,0.5]];portConstraint=eastwest;whiteSpace=wrap;html=1;" parent="FJKOEfVYeCliXk1Lab6D-1" vertex="1">
          <mxGeometry y="316" width="340" height="26" as="geometry" />
        </mxCell>
        <mxCell id="dVCbiTrQHsEz04v3iH_W-18" value="+ method: update_Value(table_name,condition,new_value" style="text;strokeColor=none;fillColor=none;align=left;verticalAlign=top;spacingLeft=4;spacingRight=4;overflow=hidden;rotatable=0;points=[[0,0.5],[1,0.5]];portConstraint=eastwest;whiteSpace=wrap;html=1;" parent="FJKOEfVYeCliXk1Lab6D-1" vertex="1">
          <mxGeometry y="342" width="340" height="26" as="geometry" />
        </mxCell>
        <mxCell id="dVCbiTrQHsEz04v3iH_W-19" value="+ method: read_Values(table_name,variables,condition)" style="text;strokeColor=none;fillColor=none;align=left;verticalAlign=top;spacingLeft=4;spacingRight=4;overflow=hidden;rotatable=0;points=[[0,0.5],[1,0.5]];portConstraint=eastwest;whiteSpace=wrap;html=1;" parent="FJKOEfVYeCliXk1Lab6D-1" vertex="1">
          <mxGeometry y="368" width="340" height="26" as="geometry" />
        </mxCell>
        <mxCell id="dVCbiTrQHsEz04v3iH_W-20" value="+ method: get_Max(table_name,column)" style="text;strokeColor=none;fillColor=none;align=left;verticalAlign=top;spacingLeft=4;spacingRight=4;overflow=hidden;rotatable=0;points=[[0,0.5],[1,0.5]];portConstraint=eastwest;whiteSpace=wrap;html=1;" parent="FJKOEfVYeCliXk1Lab6D-1" vertex="1">
          <mxGeometry y="394" width="340" height="26" as="geometry" />
        </mxCell>
        <mxCell id="dVCbiTrQHsEz04v3iH_W-3" value="Clients" style="swimlane;fontStyle=1;align=center;verticalAlign=top;childLayout=stackLayout;horizontal=1;startSize=26;horizontalStack=0;resizeParent=1;resizeParentMax=0;resizeLast=0;collapsible=1;marginBottom=0;whiteSpace=wrap;html=1;" parent="1" vertex="1">
          <mxGeometry x="-180" y="750" width="220" height="86" as="geometry" />
        </mxCell>
        <mxCell id="dVCbiTrQHsEz04v3iH_W-11" value="" style="line;strokeWidth=1;fillColor=none;align=left;verticalAlign=middle;spacingTop=-1;spacingLeft=3;spacingRight=3;rotatable=0;labelPosition=right;points=[];portConstraint=eastwest;strokeColor=inherit;" parent="dVCbiTrQHsEz04v3iH_W-3" vertex="1">
          <mxGeometry y="26" width="220" height="8" as="geometry" />
        </mxCell>
        <mxCell id="dVCbiTrQHsEz04v3iH_W-12" value="+ method: add_Client(client_name)" style="text;strokeColor=none;fillColor=none;align=left;verticalAlign=top;spacingLeft=4;spacingRight=4;overflow=hidden;rotatable=0;points=[[0,0.5],[1,0.5]];portConstraint=eastwest;whiteSpace=wrap;html=1;" parent="dVCbiTrQHsEz04v3iH_W-3" vertex="1">
          <mxGeometry y="34" width="220" height="26" as="geometry" />
        </mxCell>
        <mxCell id="dVCbiTrQHsEz04v3iH_W-14" value="+ method: delete_Client(client_name)" style="text;strokeColor=none;fillColor=none;align=left;verticalAlign=top;spacingLeft=4;spacingRight=4;overflow=hidden;rotatable=0;points=[[0,0.5],[1,0.5]];portConstraint=eastwest;whiteSpace=wrap;html=1;" parent="dVCbiTrQHsEz04v3iH_W-3" vertex="1">
          <mxGeometry y="60" width="220" height="26" as="geometry" />
        </mxCell>
        <mxCell id="dVCbiTrQHsEz04v3iH_W-22" value="Orders" style="swimlane;fontStyle=1;align=center;verticalAlign=top;childLayout=stackLayout;horizontal=1;startSize=26;horizontalStack=0;resizeParent=1;resizeParentMax=0;resizeLast=0;collapsible=1;marginBottom=0;whiteSpace=wrap;html=1;" parent="1" vertex="1">
          <mxGeometry x="159" y="760" width="510" height="138" as="geometry" />
        </mxCell>
        <mxCell id="dVCbiTrQHsEz04v3iH_W-23" value="" style="line;strokeWidth=1;fillColor=none;align=left;verticalAlign=middle;spacingTop=-1;spacingLeft=3;spacingRight=3;rotatable=0;labelPosition=right;points=[];portConstraint=eastwest;strokeColor=inherit;" parent="dVCbiTrQHsEz04v3iH_W-22" vertex="1">
          <mxGeometry y="26" width="510" height="8" as="geometry" />
        </mxCell>
        <mxCell id="dVCbiTrQHsEz04v3iH_W-24" value="+ method: add_Order(number,workpiece,quantity,duedate,latepen,earlypen,client)" style="text;strokeColor=none;fillColor=none;align=left;verticalAlign=top;spacingLeft=4;spacingRight=4;overflow=hidden;rotatable=0;points=[[0,0.5],[1,0.5]];portConstraint=eastwest;whiteSpace=wrap;html=1;" parent="dVCbiTrQHsEz04v3iH_W-22" vertex="1">
          <mxGeometry y="34" width="510" height="26" as="geometry" />
        </mxCell>
        <mxCell id="rI5mC8IiyzkYGY5zv9Qm-1" value="+ method: delete_Order(number)" style="text;strokeColor=none;fillColor=none;align=left;verticalAlign=top;spacingLeft=4;spacingRight=4;overflow=hidden;rotatable=0;points=[[0,0.5],[1,0.5]];portConstraint=eastwest;whiteSpace=wrap;html=1;" parent="dVCbiTrQHsEz04v3iH_W-22" vertex="1">
          <mxGeometry y="60" width="510" height="26" as="geometry" />
        </mxCell>
        <mxCell id="CwIi-vlImdMJLLl_rtbo-1" value="+ method: read_Order(number)" style="text;strokeColor=none;fillColor=none;align=left;verticalAlign=top;spacingLeft=4;spacingRight=4;overflow=hidden;rotatable=0;points=[[0,0.5],[1,0.5]];portConstraint=eastwest;whiteSpace=wrap;html=1;" parent="dVCbiTrQHsEz04v3iH_W-22" vertex="1">
          <mxGeometry y="86" width="510" height="26" as="geometry" />
        </mxCell>
        <mxCell id="dVCbiTrQHsEz04v3iH_W-25" value="+ method: update_Order(number,column,new_value)" style="text;strokeColor=none;fillColor=none;align=left;verticalAlign=top;spacingLeft=4;spacingRight=4;overflow=hidden;rotatable=0;points=[[0,0.5],[1,0.5]];portConstraint=eastwest;whiteSpace=wrap;html=1;" parent="dVCbiTrQHsEz04v3iH_W-22" vertex="1">
          <mxGeometry y="112" width="510" height="26" as="geometry" />
        </mxCell>
        <mxCell id="-0m-NwAjTuMi-BNCgpVv-1" value="Schedule" style="swimlane;fontStyle=1;align=center;verticalAlign=top;childLayout=stackLayout;horizontal=1;startSize=26;horizontalStack=0;resizeParent=1;resizeParentMax=0;resizeLast=0;collapsible=1;marginBottom=0;whiteSpace=wrap;html=1;" parent="1" vertex="1">
          <mxGeometry x="820" y="750" width="370" height="138" as="geometry" />
        </mxCell>
        <mxCell id="-0m-NwAjTuMi-BNCgpVv-2" value="" style="line;strokeWidth=1;fillColor=none;align=left;verticalAlign=middle;spacingTop=-1;spacingLeft=3;spacingRight=3;rotatable=0;labelPosition=right;points=[];portConstraint=eastwest;strokeColor=inherit;" parent="-0m-NwAjTuMi-BNCgpVv-1" vertex="1">
          <mxGeometry y="26" width="370" height="8" as="geometry" />
        </mxCell>
        <mxCell id="-0m-NwAjTuMi-BNCgpVv-3" value="+ method: add_Schedule(day,pieces,purchases,dicharges)" style="text;strokeColor=none;fillColor=none;align=left;verticalAlign=top;spacingLeft=4;spacingRight=4;overflow=hidden;rotatable=0;points=[[0,0.5],[1,0.5]];portConstraint=eastwest;whiteSpace=wrap;html=1;" parent="-0m-NwAjTuMi-BNCgpVv-1" vertex="1">
          <mxGeometry y="34" width="370" height="26" as="geometry" />
        </mxCell>
        <mxCell id="-0m-NwAjTuMi-BNCgpVv-4" value="+ method: delete_Client(day)&lt;br&gt;" style="text;strokeColor=none;fillColor=none;align=left;verticalAlign=top;spacingLeft=4;spacingRight=4;overflow=hidden;rotatable=0;points=[[0,0.5],[1,0.5]];portConstraint=eastwest;whiteSpace=wrap;html=1;" parent="-0m-NwAjTuMi-BNCgpVv-1" vertex="1">
          <mxGeometry y="60" width="370" height="26" as="geometry" />
        </mxCell>
        <mxCell id="Ff9E1rgYtpD3DB5tQ87f-5" value="+ method: update_Schedule(day,column,new_value)" style="text;strokeColor=none;fillColor=none;align=left;verticalAlign=top;spacingLeft=4;spacingRight=4;overflow=hidden;rotatable=0;points=[[0,0.5],[1,0.5]];portConstraint=eastwest;whiteSpace=wrap;html=1;" parent="-0m-NwAjTuMi-BNCgpVv-1" vertex="1">
          <mxGeometry y="86" width="370" height="26" as="geometry" />
        </mxCell>
        <mxCell id="Ff9E1rgYtpD3DB5tQ87f-6" value="+ method: read_Schedule(day)" style="text;strokeColor=none;fillColor=none;align=left;verticalAlign=top;spacingLeft=4;spacingRight=4;overflow=hidden;rotatable=0;points=[[0,0.5],[1,0.5]];portConstraint=eastwest;whiteSpace=wrap;html=1;" parent="-0m-NwAjTuMi-BNCgpVv-1" vertex="1">
          <mxGeometry y="112" width="370" height="26" as="geometry" />
        </mxCell>
        <mxCell id="-0m-NwAjTuMi-BNCgpVv-10" value="" style="endArrow=classic;html=1;rounded=0;" parent="1" edge="1">
          <mxGeometry width="50" height="50" relative="1" as="geometry">
            <mxPoint x="410" y="680" as="sourcePoint" />
            <mxPoint x="410" y="570" as="targetPoint" />
          </mxGeometry>
        </mxCell>
        <mxCell id="-0m-NwAjTuMi-BNCgpVv-11" value="" style="endArrow=none;html=1;rounded=0;exitX=0.5;exitY=0;exitDx=0;exitDy=0;" parent="1" source="dVCbiTrQHsEz04v3iH_W-3" edge="1">
          <mxGeometry width="50" height="50" relative="1" as="geometry">
            <mxPoint x="390" y="590" as="sourcePoint" />
            <mxPoint x="400" y="680" as="targetPoint" />
            <Array as="points">
              <mxPoint x="-70" y="680" />
            </Array>
          </mxGeometry>
        </mxCell>
        <mxCell id="-0m-NwAjTuMi-BNCgpVv-12" value="" style="endArrow=none;html=1;rounded=0;exitX=0.5;exitY=0;exitDx=0;exitDy=0;" parent="1" source="-0m-NwAjTuMi-BNCgpVv-1" edge="1">
          <mxGeometry width="50" height="50" relative="1" as="geometry">
            <mxPoint x="710" y="740" as="sourcePoint" />
            <mxPoint x="400" y="680" as="targetPoint" />
            <Array as="points">
              <mxPoint x="1005" y="680" />
            </Array>
          </mxGeometry>
        </mxCell>
        <mxCell id="-0m-NwAjTuMi-BNCgpVv-14" value="" style="endArrow=none;html=1;rounded=0;exitX=0.5;exitY=0;exitDx=0;exitDy=0;" parent="1" source="dVCbiTrQHsEz04v3iH_W-22" edge="1">
          <mxGeometry width="50" height="50" relative="1" as="geometry">
            <mxPoint x="390" y="590" as="sourcePoint" />
            <mxPoint x="410" y="680" as="targetPoint" />
          </mxGeometry>
        </mxCell>
        <mxCell id="dYEjhp-UejeCaVNtGJbH-1" value="Pending" style="swimlane;fontStyle=1;align=center;verticalAlign=top;childLayout=stackLayout;horizontal=1;startSize=26;horizontalStack=0;resizeParent=1;resizeParentMax=0;resizeLast=0;collapsible=1;marginBottom=0;whiteSpace=wrap;html=1;" vertex="1" parent="1">
          <mxGeometry x="-140" y="970" width="220" height="86" as="geometry" />
        </mxCell>
        <mxCell id="dYEjhp-UejeCaVNtGJbH-2" value="" style="line;strokeWidth=1;fillColor=none;align=left;verticalAlign=middle;spacingTop=-1;spacingLeft=3;spacingRight=3;rotatable=0;labelPosition=right;points=[];portConstraint=eastwest;strokeColor=inherit;" vertex="1" parent="dYEjhp-UejeCaVNtGJbH-1">
          <mxGeometry y="26" width="220" height="8" as="geometry" />
        </mxCell>
        <mxCell id="dYEjhp-UejeCaVNtGJbH-3" value="+ method: add_Order(number)" style="text;strokeColor=none;fillColor=none;align=left;verticalAlign=top;spacingLeft=4;spacingRight=4;overflow=hidden;rotatable=0;points=[[0,0.5],[1,0.5]];portConstraint=eastwest;whiteSpace=wrap;html=1;" vertex="1" parent="dYEjhp-UejeCaVNtGJbH-1">
          <mxGeometry y="34" width="220" height="26" as="geometry" />
        </mxCell>
        <mxCell id="dYEjhp-UejeCaVNtGJbH-4" value="+ method: delete_Order(number)" style="text;strokeColor=none;fillColor=none;align=left;verticalAlign=top;spacingLeft=4;spacingRight=4;overflow=hidden;rotatable=0;points=[[0,0.5],[1,0.5]];portConstraint=eastwest;whiteSpace=wrap;html=1;" vertex="1" parent="dYEjhp-UejeCaVNtGJbH-1">
          <mxGeometry y="60" width="220" height="26" as="geometry" />
        </mxCell>
        <mxCell id="dYEjhp-UejeCaVNtGJbH-5" value="JobTime" style="swimlane;fontStyle=1;align=center;verticalAlign=top;childLayout=stackLayout;horizontal=1;startSize=26;horizontalStack=0;resizeParent=1;resizeParentMax=0;resizeLast=0;collapsible=1;marginBottom=0;whiteSpace=wrap;html=1;" vertex="1" parent="1">
          <mxGeometry x="203.5" y="970" width="256.5" height="112" as="geometry" />
        </mxCell>
        <mxCell id="dYEjhp-UejeCaVNtGJbH-6" value="" style="line;strokeWidth=1;fillColor=none;align=left;verticalAlign=middle;spacingTop=-1;spacingLeft=3;spacingRight=3;rotatable=0;labelPosition=right;points=[];portConstraint=eastwest;strokeColor=inherit;" vertex="1" parent="dYEjhp-UejeCaVNtGJbH-5">
          <mxGeometry y="26" width="256.5" height="8" as="geometry" />
        </mxCell>
        <mxCell id="dYEjhp-UejeCaVNtGJbH-7" value="+ method: add_JobTime(job,time)" style="text;strokeColor=none;fillColor=none;align=left;verticalAlign=top;spacingLeft=4;spacingRight=4;overflow=hidden;rotatable=0;points=[[0,0.5],[1,0.5]];portConstraint=eastwest;whiteSpace=wrap;html=1;" vertex="1" parent="dYEjhp-UejeCaVNtGJbH-5">
          <mxGeometry y="34" width="256.5" height="26" as="geometry" />
        </mxCell>
        <mxCell id="dYEjhp-UejeCaVNtGJbH-8" value="+ method: delete_JobTime(job,time)" style="text;strokeColor=none;fillColor=none;align=left;verticalAlign=top;spacingLeft=4;spacingRight=4;overflow=hidden;rotatable=0;points=[[0,0.5],[1,0.5]];portConstraint=eastwest;whiteSpace=wrap;html=1;" vertex="1" parent="dYEjhp-UejeCaVNtGJbH-5">
          <mxGeometry y="60" width="256.5" height="26" as="geometry" />
        </mxCell>
        <mxCell id="dYEjhp-UejeCaVNtGJbH-21" value="+ method: update_JobTime(job,new_time)" style="text;strokeColor=none;fillColor=none;align=left;verticalAlign=top;spacingLeft=4;spacingRight=4;overflow=hidden;rotatable=0;points=[[0,0.5],[1,0.5]];portConstraint=eastwest;whiteSpace=wrap;html=1;" vertex="1" parent="dYEjhp-UejeCaVNtGJbH-5">
          <mxGeometry y="86" width="256.5" height="26" as="geometry" />
        </mxCell>
        <mxCell id="dYEjhp-UejeCaVNtGJbH-9" value="Stock" style="swimlane;fontStyle=1;align=center;verticalAlign=top;childLayout=stackLayout;horizontal=1;startSize=26;horizontalStack=0;resizeParent=1;resizeParentMax=0;resizeLast=0;collapsible=1;marginBottom=0;whiteSpace=wrap;html=1;" vertex="1" parent="1">
          <mxGeometry x="530" y="980" width="300" height="86" as="geometry" />
        </mxCell>
        <mxCell id="dYEjhp-UejeCaVNtGJbH-10" value="" style="line;strokeWidth=1;fillColor=none;align=left;verticalAlign=middle;spacingTop=-1;spacingLeft=3;spacingRight=3;rotatable=0;labelPosition=right;points=[];portConstraint=eastwest;strokeColor=inherit;" vertex="1" parent="dYEjhp-UejeCaVNtGJbH-9">
          <mxGeometry y="26" width="300" height="8" as="geometry" />
        </mxCell>
        <mxCell id="dYEjhp-UejeCaVNtGJbH-11" value="+ method: add_Piece_Type(type,quantity)" style="text;strokeColor=none;fillColor=none;align=left;verticalAlign=top;spacingLeft=4;spacingRight=4;overflow=hidden;rotatable=0;points=[[0,0.5],[1,0.5]];portConstraint=eastwest;whiteSpace=wrap;html=1;" vertex="1" parent="dYEjhp-UejeCaVNtGJbH-9">
          <mxGeometry y="34" width="300" height="26" as="geometry" />
        </mxCell>
        <mxCell id="dYEjhp-UejeCaVNtGJbH-12" value="+ method: delete_Piece_Type(type)" style="text;strokeColor=none;fillColor=none;align=left;verticalAlign=top;spacingLeft=4;spacingRight=4;overflow=hidden;rotatable=0;points=[[0,0.5],[1,0.5]];portConstraint=eastwest;whiteSpace=wrap;html=1;" vertex="1" parent="dYEjhp-UejeCaVNtGJbH-9">
          <mxGeometry y="60" width="300" height="26" as="geometry" />
        </mxCell>
        <mxCell id="dYEjhp-UejeCaVNtGJbH-13" value="&lt;div style=&quot;color: rgb(212, 212, 212); background-color: rgb(30, 30, 30); font-family: Consolas, &amp;quot;Courier New&amp;quot;, monospace; font-weight: normal; font-size: 14px; line-height: 19px;&quot;&gt;PiecesToPurchase&lt;/div&gt;" style="swimlane;fontStyle=1;align=center;verticalAlign=top;childLayout=stackLayout;horizontal=1;startSize=26;horizontalStack=0;resizeParent=1;resizeParentMax=0;resizeLast=0;collapsible=1;marginBottom=0;whiteSpace=wrap;html=1;" vertex="1" parent="1">
          <mxGeometry x="920" y="970" width="280" height="86" as="geometry" />
        </mxCell>
        <mxCell id="dYEjhp-UejeCaVNtGJbH-14" value="" style="line;strokeWidth=1;fillColor=none;align=left;verticalAlign=middle;spacingTop=-1;spacingLeft=3;spacingRight=3;rotatable=0;labelPosition=right;points=[];portConstraint=eastwest;strokeColor=inherit;" vertex="1" parent="dYEjhp-UejeCaVNtGJbH-13">
          <mxGeometry y="26" width="280" height="8" as="geometry" />
        </mxCell>
        <mxCell id="dYEjhp-UejeCaVNtGJbH-15" value="+ method: add_Piece(type,quantity,date)" style="text;strokeColor=none;fillColor=none;align=left;verticalAlign=top;spacingLeft=4;spacingRight=4;overflow=hidden;rotatable=0;points=[[0,0.5],[1,0.5]];portConstraint=eastwest;whiteSpace=wrap;html=1;" vertex="1" parent="dYEjhp-UejeCaVNtGJbH-13">
          <mxGeometry y="34" width="280" height="26" as="geometry" />
        </mxCell>
        <mxCell id="dYEjhp-UejeCaVNtGJbH-16" value="+ method: update_Date(piece,new_date)" style="text;strokeColor=none;fillColor=none;align=left;verticalAlign=top;spacingLeft=4;spacingRight=4;overflow=hidden;rotatable=0;points=[[0,0.5],[1,0.5]];portConstraint=eastwest;whiteSpace=wrap;html=1;" vertex="1" parent="dYEjhp-UejeCaVNtGJbH-13">
          <mxGeometry y="60" width="280" height="26" as="geometry" />
        </mxCell>
        <mxCell id="dYEjhp-UejeCaVNtGJbH-17" value="Concluded" style="swimlane;fontStyle=1;align=center;verticalAlign=top;childLayout=stackLayout;horizontal=1;startSize=26;horizontalStack=0;resizeParent=1;resizeParentMax=0;resizeLast=0;collapsible=1;marginBottom=0;whiteSpace=wrap;html=1;" vertex="1" parent="1">
          <mxGeometry x="-480" y="960" width="220" height="86" as="geometry" />
        </mxCell>
        <mxCell id="dYEjhp-UejeCaVNtGJbH-18" value="" style="line;strokeWidth=1;fillColor=none;align=left;verticalAlign=middle;spacingTop=-1;spacingLeft=3;spacingRight=3;rotatable=0;labelPosition=right;points=[];portConstraint=eastwest;strokeColor=inherit;" vertex="1" parent="dYEjhp-UejeCaVNtGJbH-17">
          <mxGeometry y="26" width="220" height="8" as="geometry" />
        </mxCell>
        <mxCell id="dYEjhp-UejeCaVNtGJbH-19" value="+ method: add_Order(number)" style="text;strokeColor=none;fillColor=none;align=left;verticalAlign=top;spacingLeft=4;spacingRight=4;overflow=hidden;rotatable=0;points=[[0,0.5],[1,0.5]];portConstraint=eastwest;whiteSpace=wrap;html=1;" vertex="1" parent="dYEjhp-UejeCaVNtGJbH-17">
          <mxGeometry y="34" width="220" height="26" as="geometry" />
        </mxCell>
        <mxCell id="dYEjhp-UejeCaVNtGJbH-20" value="+ method: delete_Order(number)" style="text;strokeColor=none;fillColor=none;align=left;verticalAlign=top;spacingLeft=4;spacingRight=4;overflow=hidden;rotatable=0;points=[[0,0.5],[1,0.5]];portConstraint=eastwest;whiteSpace=wrap;html=1;" vertex="1" parent="dYEjhp-UejeCaVNtGJbH-17">
          <mxGeometry y="60" width="220" height="26" as="geometry" />
        </mxCell>
      </root>
    </mxGraphModel>
  </diagram>
  <diagram id="3RGxckAV2Pl3f8bD8pVR" name="Terminal Mockup ERP">
    <mxGraphModel dx="990" dy="834" grid="1" gridSize="10" guides="1" tooltips="1" connect="1" arrows="1" fold="1" page="1" pageScale="1" pageWidth="827" pageHeight="1169" math="0" shadow="0">
      <root>
        <mxCell id="0" />
        <mxCell id="1" parent="0" />
        <mxCell id="Ft1R9A8QKiHTLFF9LjwQ-1" value="" style="rounded=0;whiteSpace=wrap;html=1;fillColor=none;" parent="1" vertex="1">
          <mxGeometry x="40" y="40" width="760" height="440" as="geometry" />
        </mxCell>
        <mxCell id="Ft1R9A8QKiHTLFF9LjwQ-2" value="&lt;font style=&quot;font-size: 15px;&quot;&gt;ERP Process Data&lt;/font&gt;" style="rounded=0;whiteSpace=wrap;html=1;fillColor=default;" parent="1" vertex="1">
          <mxGeometry x="40" y="40" width="760" height="50" as="geometry" />
        </mxCell>
        <mxCell id="Ft1R9A8QKiHTLFF9LjwQ-4" value="Orders" style="rounded=0;whiteSpace=wrap;html=1;" parent="1" vertex="1">
          <mxGeometry x="50" y="100" width="450" height="370" as="geometry" />
        </mxCell>
        <mxCell id="MQgF0IFBOl0gl5aQoWEX-1" value="&lt;font style=&quot;font-size: 15px;&quot;&gt;Local Time&lt;/font&gt;" style="rounded=0;whiteSpace=wrap;html=1;fillColor=default;" parent="1" vertex="1">
          <mxGeometry x="520" y="100" width="270" height="30" as="geometry" />
        </mxCell>
        <mxCell id="MQgF0IFBOl0gl5aQoWEX-2" value="Plans" style="rounded=0;whiteSpace=wrap;html=1;" parent="1" vertex="1">
          <mxGeometry x="520" y="145" width="270" height="325" as="geometry" />
        </mxCell>
        <mxCell id="TtIb942A4y0mUKc4AGgQ-2" value="" style="rounded=0;whiteSpace=wrap;html=1;fillStyle=solid;fillColor=#000000;" vertex="1" parent="1">
          <mxGeometry x="520" y="457.5" width="130" height="12.5" as="geometry" />
        </mxCell>
        <mxCell id="TtIb942A4y0mUKc4AGgQ-3" value="" style="rounded=0;whiteSpace=wrap;html=1;fillStyle=solid;fillColor=#000000;direction=south;" vertex="1" parent="1">
          <mxGeometry x="487.5" y="110" width="12.5" height="140" as="geometry" />
        </mxCell>
      </root>
    </mxGraphModel>
  </diagram>
</mxfile>
